<?xml version="1.0" standalone="no"?>
<!DOCTYPE svg PUBLIC "-//W3C//DTD SVG 20010904//EN"
 "http://www.w3.org/TR/2001/REC-SVG-20010904/DTD/svg10.dtd">
<svg version="1.0" xmlns="http://www.w3.org/2000/svg"
 width="1016.000000pt" height="1016.000000pt" viewBox="0 0 1016.000000 1016.000000"
 preserveAspectRatio="xMidYMid meet">
<metadata>
Created by potrace 1.14, written by Peter Selinger 2001-2017
</metadata>
<g transform="translate(0.000000,1016.000000) scale(0.100000,-0.100000)"
fill="#000000" stroke="none">
<path d="M5046 10045 c-10 -7 -15 -18 -11 -24 3 -6 1 -19 -5 -28 -9 -15 -10
-14 -5 7 6 24 6 25 -10 5 -30 -37 -115 -216 -109 -227 4 -7 2 -8 -4 -4 -6 4
-18 -6 -27 -23 -19 -38 -19 -52 0 -27 23 30 18 14 -11 -38 -14 -25 -30 -46
-36 -46 -6 0 -7 -7 -4 -16 3 -8 2 -12 -4 -9 -5 3 -28 -31 -51 -77 -22 -46 -62
-126 -88 -178 -91 -180 -141 -286 -141 -302 0 -8 -8 -26 -18 -39 -10 -13 -23
-35 -29 -49 -17 -41 -84 -110 -105 -110 -19 0 -20 4 -14 53 36 263 39 372 16
432 -5 11 -24 37 -44 59 -20 21 -36 41 -36 45 0 3 -11 18 -24 32 -13 15 -36
49 -50 76 -28 57 -70 91 -90 74 -7 -6 -24 -37 -37 -68 -30 -72 -177 -371 -189
-386 -6 -7 -31 -52 -56 -102 -26 -49 -55 -107 -66 -127 -11 -21 -16 -43 -12
-49 4 -7 3 -9 -4 -5 -15 9 -75 -124 -95 -209 -9 -38 -19 -105 -23 -148 -5 -60
-10 -80 -25 -87 -27 -15 -85 -12 -99 5 -8 9 -13 74 -16 192 -6 214 -14 252
-63 295 -20 17 -48 47 -63 66 -20 25 -28 30 -28 17 0 -9 21 -37 48 -62 40 -38
43 -44 22 -39 -14 3 -19 3 -12 0 18 -8 15 -24 -5 -24 -19 0 -73 -57 -73 -78 0
-12 -3 -12 -15 -2 -12 10 -15 9 -15 -7 0 -10 -5 -24 -11 -30 -13 -13 -71 -265
-90 -389 -8 -51 -15 -77 -17 -61 -4 28 37 265 64 376 9 35 14 79 11 97 -3 19
-3 32 2 30 8 -5 -4 122 -13 131 -3 4 -7 -11 -7 -33 -2 -31 -3 -26 -9 21 -4 33
-3 64 2 70 5 5 8 1 8 -10 0 -10 2 -16 5 -14 2 3 -2 42 -11 88 -15 80 -14 111
4 111 11 0 62 -96 62 -117 0 -8 5 -11 10 -8 6 3 10 0 10 -8 0 -7 6 -14 13 -14
10 0 7 13 -10 46 -50 98 -74 130 -95 131 -12 0 -52 -70 -72 -125 -10 -27 -29
-72 -42 -100 -43 -95 -64 -155 -58 -172 4 -12 3 -14 -3 -6 -12 17 -46 -77 -37
-102 5 -12 4 -16 -3 -12 -6 4 -15 -6 -21 -21 -17 -41 -34 -113 -29 -119 3 -2
10 20 17 49 14 58 35 104 24 53 -13 -64 -38 -135 -44 -125 -11 18 -30 -90 -38
-215 -7 -112 -8 -120 -28 -123 -14 -2 -39 14 -76 48 -30 29 -81 67 -114 85
-32 18 -81 45 -107 60 -46 26 -49 27 -62 9 -10 -13 -13 -32 -9 -59 11 -79 55
-236 75 -272 77 -138 83 -163 33 -163 -47 0 -145 58 -235 140 -20 18 -80 68
-94 78 -156 116 -203 151 -215 163 -8 8 -31 26 -50 39 -46 33 -63 46 -126 102
-125 110 -129 98 -84 -232 6 -46 8 -49 10 -20 2 34 3 34 11 -10 4 -25 7 -61 7
-80 l-1 -35 -7 40 c-5 26 -6 14 -3 -35 6 -104 24 -195 35 -178 5 8 6 4 3 -13
-6 -25 1 -76 45 -309 25 -134 84 -381 114 -475 31 -96 32 -133 5 -205 -11 -30
-27 -77 -36 -105 -9 -27 -23 -61 -33 -75 -9 -14 -20 -33 -23 -42 -4 -12 -17
-18 -36 -18 -26 0 -33 6 -50 45 -27 61 -115 185 -181 255 -8 9 -27 32 -42 51
-14 19 -36 45 -48 59 -12 14 -40 47 -63 74 -23 28 -58 66 -77 86 -19 20 -49
54 -65 75 -49 63 -65 76 -88 73 -26 -4 -25 21 -8 -328 13 -261 35 -477 56
-548 7 -26 26 -93 41 -150 15 -57 31 -105 36 -108 4 -3 8 -13 8 -22 0 -23 47
-111 103 -195 56 -82 71 -133 63 -210 -15 -145 -27 -144 -183 11 -110 111
-290 247 -352 267 -12 3 -44 26 -73 51 -28 24 -57 44 -64 44 -28 0 -34 -26
-23 -106 5 -43 14 -121 19 -173 10 -96 31 -192 56 -248 8 -17 14 -35 14 -40 0
-23 89 -177 141 -247 28 -37 49 -84 49 -111 0 -21 -5 -25 -28 -25 -15 0 -32 4
-38 9 -24 23 -179 101 -192 96 -16 -6 -12 -22 26 -103 15 -32 27 -59 28 -62
11 -50 78 -170 109 -198 17 -15 58 -47 92 -72 65 -47 93 -84 93 -120 0 -20 -4
-22 -34 -17 -32 5 -76 -13 -76 -32 0 -14 44 -57 110 -107 88 -66 100 -80 100
-110 0 -25 -2 -26 -47 -21 -27 2 -84 12 -128 20 -44 9 -116 23 -160 31 -44 7
-106 21 -138 30 -32 9 -62 16 -67 16 -18 0 -10 -36 18 -81 15 -24 49 -87 75
-139 67 -132 76 -147 150 -235 67 -79 157 -162 232 -214 44 -30 71 -56 73 -70
3 -19 -1 -21 -38 -21 -22 0 -53 6 -68 14 -15 7 -45 17 -67 21 -22 4 -66 20
-98 36 -134 66 -130 20 11 -156 4 -5 17 -26 28 -45 30 -56 107 -151 161 -201
67 -61 193 -164 201 -164 3 0 17 -10 30 -22 13 -12 60 -41 104 -64 77 -39 124
-55 232 -80 68 -16 155 -56 163 -75 9 -23 -16 -35 -57 -28 -56 10 -501 4 -521
-7 -32 -17 -22 -48 31 -96 72 -65 69 -83 -23 -126 -39 -19 -89 -42 -110 -51
-21 -9 -35 -21 -32 -26 4 -6 1 -9 -7 -8 -8 2 -13 -7 -13 -27 0 -26 6 -31 60
-53 33 -13 74 -31 90 -39 17 -8 111 -57 211 -108 99 -51 189 -97 200 -103 56
-31 126 -43 284 -48 205 -6 250 -11 250 -28 0 -16 -38 -43 -115 -83 -11 -5
-30 -15 -42 -21 -13 -7 -31 -16 -40 -20 -10 -5 -31 -15 -48 -23 -61 -30 -34
-79 51 -95 86 -15 95 -38 32 -83 -24 -16 -59 -43 -78 -60 -19 -17 -38 -31 -42
-31 -4 0 -23 -15 -43 -34 -61 -59 -41 -95 65 -115 30 -6 89 -20 130 -32 200
-57 300 -68 425 -49 82 12 136 35 241 101 75 48 107 45 142 -9 33 -51 24 -71
-53 -112 -36 -19 -65 -38 -65 -42 0 -3 -17 -12 -37 -19 -60 -19 -113 -50 -113
-64 0 -24 30 -44 88 -61 31 -9 86 -24 122 -34 36 -10 89 -21 117 -25 29 -4 56
-11 59 -16 11 -19 -7 -45 -46 -63 -21 -10 -48 -27 -59 -37 -11 -11 -25 -19
-30 -19 -5 0 -16 -6 -24 -14 -8 -8 -34 -26 -58 -39 -58 -33 -74 -57 -55 -83
13 -17 33 -20 223 -26 205 -6 353 3 353 24 0 5 4 7 9 4 27 -17 148 56 217 132
55 59 79 54 68 -14 -4 -26 -13 -59 -20 -73 -8 -14 -14 -39 -14 -54 0 -15 -7
-57 -16 -92 -9 -36 -14 -75 -10 -89 3 -13 38 -62 76 -108 39 -45 76 -90 83
-98 7 -8 30 -38 52 -67 21 -29 42 -50 47 -47 4 3 5 -1 3 -8 -3 -8 7 -25 22
-38 l28 -25 -25 30 -25 30 27 -24 c15 -13 25 -28 22 -35 -2 -6 21 -38 51 -71
30 -33 55 -63 55 -67 0 -5 13 -8 30 -8 35 0 72 34 115 108 17 29 33 52 36 52
4 0 10 11 13 24 3 14 23 51 44 83 20 32 48 81 61 108 57 116 76 114 137 -10
25 -52 51 -95 56 -95 5 0 7 -4 4 -9 -9 -14 4 -41 20 -41 7 0 11 -6 8 -13 -3
-8 8 -28 25 -45 16 -18 26 -32 23 -32 -3 0 2 -6 11 -12 10 -7 19 -22 21 -34 5
-25 42 -87 49 -82 3 2 9 -1 14 -6 5 -5 3 -6 -4 -2 -20 11 -16 0 26 -58 21 -31
42 -52 46 -48 5 4 5 1 1 -6 -8 -13 36 -81 112 -170 42 -49 46 -52 66 -39 20
14 67 75 143 187 21 30 43 61 50 68 7 7 13 19 13 26 0 7 9 21 19 33 10 11 27
35 36 54 10 19 37 63 60 99 23 36 73 118 111 182 65 112 82 128 111 110 10 -7
113 -204 113 -217 0 -12 124 -200 140 -212 22 -18 38 -16 63 10 69 74 151 168
184 213 40 54 189 239 211 263 7 7 22 31 33 54 22 42 22 92 3 249 -5 43 -4 48
14 48 11 0 46 -20 78 -45 31 -25 62 -45 67 -45 6 0 18 -6 26 -13 9 -8 45 -24
81 -37 75 -27 221 -33 281 -12 20 7 88 16 150 20 112 7 114 7 114 32 0 19 -12
31 -60 58 -33 18 -64 38 -70 45 -14 17 -89 67 -101 67 -5 1 -20 10 -33 21 -20
16 -23 24 -15 37 10 16 38 23 218 62 32 6 54 15 48 19 -7 4 4 7 23 7 23 0 40
7 51 20 8 10 12 13 8 5 -10 -19 17 -9 30 11 14 23 -12 59 -60 83 -108 56 -135
77 -132 103 4 31 48 50 81 35 99 -44 252 -63 417 -52 47 3 76 7 65 8 -11 2 30
15 90 30 61 15 113 23 116 19 3 -5 22 -2 42 7 20 8 49 15 65 15 45 0 102 27
102 48 0 37 -113 140 -208 189 -26 13 -32 23 -30 42 3 26 11 32 78 52 39 12
45 18 48 44 3 28 -2 33 -45 53 -112 52 -183 102 -183 129 0 10 19 13 72 13 97
0 299 21 293 31 -3 4 4 5 15 2 11 -3 20 -1 20 3 0 5 11 10 24 10 32 2 278 123
313 154 7 5 52 29 100 51 160 75 195 93 200 105 8 22 -14 48 -59 70 -24 12
-69 33 -100 49 -85 41 -87 80 -7 145 40 32 49 59 25 79 -16 13 -199 41 -277
41 -31 0 -81 5 -112 11 -45 9 -57 16 -57 31 0 22 51 55 98 64 34 7 230 92 254
111 7 5 20 12 28 15 22 8 136 95 167 129 16 16 31 29 36 29 6 0 83 76 158 156
47 51 169 230 169 249 0 7 -7 18 -15 25 -14 12 -47 5 -120 -26 -17 -7 -66 -16
-108 -20 l-79 -7 4 28 c2 22 22 44 83 94 86 69 125 108 193 186 48 57 121 165
122 180 0 6 9 16 20 23 11 7 20 21 20 31 0 11 6 26 13 33 27 30 57 78 48 78
-5 0 -17 3 -26 6 -11 5 -16 2 -14 -7 3 -22 -12 -49 -27 -49 -8 0 -14 -10 -14
-23 0 -29 -7 -37 -27 -30 -12 5 -12 7 -1 14 11 7 11 10 0 17 -10 7 -7 16 14
41 22 27 25 34 13 42 -11 7 -11 9 3 9 9 0 19 -5 21 -10 3 -6 4 -5 3 2 -1 7
-16 15 -32 19 -28 5 -28 5 -7 13 13 4 27 4 33 1 6 -4 10 -3 9 2 -4 25 3 43 18
43 9 0 13 3 10 6 -3 4 -22 -1 -41 -10 -19 -9 -45 -16 -59 -16 -13 0 -42 -6
-63 -14 -53 -18 -140 -26 -194 -18 -37 6 -46 11 -48 30 -3 18 12 37 59 82 64
60 72 86 29 97 -13 3 -20 14 -20 29 0 25 52 104 105 161 16 18 40 43 52 57 12
13 31 46 43 72 11 27 27 61 35 76 17 30 19 42 6 33 -18 -11 -22 15 -6 39 16
24 16 25 -6 21 l-22 -4 21 20 c25 23 27 32 10 59 -17 27 6 44 34 27 23 -15 23
-34 -3 -92 -11 -25 -18 -49 -16 -52 3 -2 8 6 12 19 4 13 13 26 18 30 6 4 11
31 12 60 0 47 -3 53 -21 56 -12 2 -50 -13 -86 -32 -84 -46 -103 -47 -94 -3 6
32 45 114 90 193 32 55 76 185 76 222 0 16 6 47 14 68 7 22 16 77 20 122 4 46
14 101 21 122 7 21 17 59 20 83 6 39 4 47 -13 56 -26 14 -44 7 -107 -40 -27
-20 -73 -48 -102 -63 -28 -14 -54 -30 -58 -36 -3 -5 -21 -17 -40 -26 -19 -9
-35 -20 -35 -25 0 -5 -5 -9 -11 -9 -6 0 -16 -6 -23 -12 -7 -7 -28 -24 -46 -38
-18 -14 -74 -65 -123 -113 -102 -100 -130 -110 -135 -45 -3 35 41 160 86 243
9 16 22 53 28 80 7 28 17 66 23 85 49 164 71 260 81 341 5 52 17 146 25 209 8
64 14 201 15 307 0 106 5 215 11 243 8 39 8 54 -1 65 -20 24 -46 17 -75 -17
-14 -18 -40 -49 -58 -69 -18 -19 -47 -54 -66 -77 -18 -23 -63 -73 -100 -110
-115 -119 -185 -196 -207 -227 -28 -39 -64 -111 -64 -126 0 -26 -33 -79 -50
-79 -25 0 -90 108 -112 185 -6 22 -19 48 -27 59 -9 10 -19 46 -22 80 l-6 61
-1 -55 c-2 -51 -5 -57 -32 -74 -17 -10 -27 -22 -24 -28 5 -8 1 -9 -10 -5 -11
5 -15 3 -10 -5 5 -8 1 -9 -12 -4 -14 5 -16 4 -8 -4 9 -9 17 -9 33 0 12 6 26 8
31 5 5 -3 7 4 5 15 -2 11 -2 20 1 20 11 0 32 -26 38 -48 4 -12 12 -22 17 -22
5 0 9 -12 9 -27 0 -16 7 -41 16 -58 15 -29 17 -135 2 -135 -5 0 -8 -9 -8 -19
0 -11 -5 -21 -12 -23 -19 -7 -11 -62 32 -205 42 -138 87 -321 115 -463 25
-125 38 -292 42 -541 4 -200 1 -258 -17 -390 -33 -242 -62 -385 -126 -614 -9
-33 -20 -73 -24 -90 -10 -37 -47 -142 -55 -154 -3 -5 -14 -7 -25 -4 -20 5 -22
26 -6 51 4 7 5 16 2 19 -3 3 -1 12 5 19 8 9 7 18 -1 31 -11 17 -11 17 -6 -1 4
-11 -1 -27 -11 -39 -10 -11 -12 -17 -4 -12 9 5 12 3 9 -6 -3 -8 -11 -13 -18
-11 -11 2 -11 0 -1 -12 7 -9 8 -16 2 -20 -12 -8 -19 4 -16 24 2 8 17 53 34 99
41 111 105 342 130 467 46 226 66 676 41 912 -28 259 -109 644 -182 857 -32
95 -128 326 -139 335 -3 3 -22 37 -41 76 -81 161 -205 340 -407 589 -149 183
-295 324 -556 535 -210 171 -611 401 -907 520 -60 24 -117 52 -128 62 -29 27
-26 17 25 -80 40 -77 50 -90 97 -117 29 -16 59 -29 65 -29 7 1 10 -2 7 -7 -3
-5 2 -9 11 -9 8 0 23 -4 33 -9 36 -20 109 -51 118 -51 16 0 118 -44 155 -68
20 -12 44 -22 53 -22 9 0 19 -6 22 -14 3 -8 14 -16 25 -19 10 -3 17 -1 13 4
-3 5 0 9 5 9 6 0 11 -5 11 -11 0 -5 8 -9 18 -8 9 2 34 -3 54 -10 21 -7 42 -10
48 -6 6 4 7 -1 3 -11 -5 -14 -3 -16 11 -11 10 4 15 3 11 -3 -3 -6 -1 -10 4
-10 6 0 11 -9 11 -20 0 -13 9 -22 27 -26 32 -9 58 -22 100 -51 17 -13 36 -23
42 -23 6 0 11 -4 11 -9 0 -5 9 -11 21 -14 14 -4 18 -10 13 -18 -5 -9 -2 -10 9
-6 10 3 17 2 17 -3 0 -5 8 -11 18 -14 10 -4 35 -21 55 -40 20 -18 52 -45 71
-60 78 -59 225 -209 336 -341 64 -77 139 -164 166 -194 27 -30 60 -70 73 -90
14 -20 30 -41 35 -48 6 -7 16 -18 21 -25 6 -7 17 -22 25 -33 13 -17 13 -18 0
-10 -14 8 14 -32 32 -45 3 -3 14 -24 23 -48 10 -23 21 -42 26 -42 5 0 9 -5 9
-10 0 -6 15 -27 34 -46 43 -44 69 -98 61 -124 -4 -12 0 -26 9 -36 9 -8 16 -24
16 -34 0 -10 8 -38 18 -62 20 -45 103 -337 121 -423 33 -159 42 -233 37 -319
-2 -50 -5 -99 -5 -110 -1 -15 -4 -16 -16 -6 -13 11 -15 10 -9 -6 5 -16 4 -16
-5 -4 -15 21 -13 40 4 40 8 0 15 4 15 9 0 5 -7 14 -15 21 -12 10 -15 9 -15 -5
0 -10 -3 -16 -6 -12 -3 3 -3 21 1 39 7 29 9 31 17 13 7 -16 7 -15 3 7 -3 15
-1 30 5 33 5 3 10 16 10 28 -1 21 -1 21 -15 -3 -12 -22 -14 -23 -14 -5 -1 11
-4 40 -7 65 -4 25 -7 57 -8 72 -1 17 -9 32 -23 39 -13 7 -23 22 -23 33 0 18
-2 19 -11 6 -8 -11 -9 -7 -5 18 3 17 2 32 -2 32 -5 0 -13 26 -20 58 -51 247
-230 631 -420 904 -242 345 -507 600 -898 865 -103 70 -386 237 -449 265 -62
28 -215 99 -226 105 -3 2 -4 -20 -3 -48 3 -35 9 -56 21 -64 10 -8 15 -17 10
-21 -4 -4 -7 -2 -7 5 0 7 -4 10 -9 6 -5 -3 -16 4 -24 15 -7 11 -29 26 -48 34
-59 25 -105 89 -199 276 -23 47 -51 97 -61 111 -10 14 -41 73 -69 130 -27 57
-68 124 -90 149 -23 25 -36 36 -31 25 5 -11 73 -148 150 -305 187 -380 316
-572 476 -709 28 -23 181 -129 340 -235 320 -213 368 -250 531 -408 61 -59
117 -108 124 -108 17 0 73 42 132 98 68 65 75 46 22 -56 l-46 -88 32 -33 c47
-51 59 -82 13 -35 l-41 42 -12 -75 c-6 -42 -9 -90 -6 -109 4 -19 35 -68 77
-121 39 -48 109 -146 157 -218 113 -170 157 -213 254 -253 42 -18 99 -38 127
-45 43 -11 91 -48 91 -71 0 -27 -201 33 -284 84 -36 23 -47 26 -42 14 13 -34
55 -192 76 -289 41 -183 86 -301 177 -465 47 -85 106 -182 130 -215 66 -88 76
-110 58 -125 -13 -10 -19 -9 -36 5 -11 11 -17 25 -14 32 2 8 1 12 -4 9 -16
-10 -160 210 -236 363 -54 106 -79 189 -130 418 -25 113 -56 228 -69 258 -23
50 -175 287 -213 330 -10 11 -32 30 -50 43 l-31 22 20 -53 c11 -28 29 -94 39
-145 21 -104 23 -124 10 -104 -6 10 -11 5 -21 -17 -9 -23 -9 -41 -1 -78 33
-140 50 -205 55 -210 9 -9 46 27 78 76 l28 45 0 -43 c0 -34 -10 -57 -47 -114
-38 -60 -46 -79 -44 -113 2 -39 -2 -45 -52 -88 -30 -25 -61 -46 -70 -46 -34 0
-58 104 -37 155 7 16 9 13 15 -22 12 -66 42 -56 37 12 -2 13 1 16 6 8 5 -8 12
-3 19 18 10 25 10 29 -2 19 -11 -9 -12 -7 -8 9 3 10 0 28 -7 38 -9 14 -10 14
-6 1 2 -9 -1 -24 -9 -35 -10 -14 -13 -14 -13 -3 1 8 0 24 -2 35 -2 15 -4 13
-10 -10 -7 -29 -8 -28 -9 11 0 23 -7 47 -15 53 -11 9 -15 -10 -25 -109 -7 -66
-15 -131 -18 -143 -10 -38 -15 -217 -8 -276 l7 -56 32 85 c41 108 51 126 81
146 57 37 72 -15 30 -105 -32 -68 -27 -76 8 -13 29 51 28 55 12 -50 -7 -44
-45 -138 -56 -138 -5 0 -9 9 -9 20 0 11 -4 20 -10 20 -6 0 -6 -9 -1 -22 5 -15
3 -34 -5 -53 -10 -23 -13 -25 -14 -10 0 11 -5 27 -11 35 -8 11 -9 8 -4 -15 4
-16 11 -102 15 -190 5 -90 16 -182 25 -210 14 -47 15 -47 9 -10 -3 22 -10 60
-14 85 -5 25 -9 68 -9 95 -1 49 0 52 58 102 72 64 110 127 118 196 l6 52 -42
-79 c-34 -66 -39 -82 -28 -95 11 -14 10 -15 -7 -1 -17 13 -22 11 -62 -35 l-44
-50 0 42 c0 32 12 66 51 138 50 93 51 96 51 185 1 83 2 88 16 69 29 -42 84
-185 97 -255 17 -88 1 -179 -36 -204 -56 -37 -62 -46 -51 -66 6 -10 12 -14 12
-9 0 13 40 14 40 1 0 -5 -7 -14 -15 -20 -12 -9 0 -30 74 -128 49 -64 105 -134
124 -155 50 -54 128 -152 184 -231 90 -128 113 -152 145 -152 28 0 29 -2 23
-32 -4 -18 -12 -41 -19 -52 -8 -13 -10 -40 -5 -86 8 -73 45 -157 98 -224 17
-21 31 -42 31 -45 0 -4 16 -15 35 -25 33 -18 43 -35 29 -48 -8 -9 -101 18
-130 37 -13 8 -40 40 -60 70 -35 52 -36 56 -29 117 4 35 5 61 2 58 -3 -3 -17
-41 -31 -85 -57 -172 -186 -392 -246 -419 -16 -7 -26 -4 -45 14 -34 32 -32 69
10 150 30 57 47 74 105 114 51 35 79 64 108 109 49 77 97 173 106 211 6 25 5
28 -11 21 -10 -4 -31 -12 -48 -17 -16 -6 -44 -21 -61 -34 l-31 -23 -11 23
c-10 24 -93 68 -148 80 -20 5 -45 2 -68 -8 -35 -15 -36 -14 -26 5 6 11 8 24 5
29 -9 15 23 43 41 36 8 -3 13 -2 10 3 -4 5 -28 12 -55 16 -66 9 -101 33 -162
110 -60 77 -73 85 -133 85 l-46 0 0 -41 c0 -45 20 -84 137 -261 56 -86 193
-251 252 -302 11 -11 21 -29 21 -41 0 -27 -48 -102 -91 -145 -34 -32 -148 -85
-158 -73 -4 3 -1 8 6 10 6 2 21 13 34 24 12 10 26 19 30 19 5 0 11 11 15 24 3
14 13 27 22 31 14 5 14 7 2 15 -8 6 -10 10 -4 10 6 0 11 16 12 35 1 19 -3 35
-8 35 -6 0 -10 6 -10 14 0 10 -34 15 -152 20 -84 4 -155 9 -156 11 -2 2 -1 17
3 34 7 35 25 42 25 11 0 -11 5 -20 10 -20 6 0 10 7 10 15 0 23 17 18 23 -6 6
-21 10 -22 84 -16 72 5 134 25 148 47 8 13 -57 52 -130 79 -33 13 -116 31
-184 42 -79 12 -135 26 -156 39 -18 11 -58 29 -88 39 -31 11 -71 26 -89 35
-78 36 -173 65 -179 54 -5 -7 -9 -7 -13 1 -4 6 -1 11 6 12 7 0 -18 11 -57 24
-230 78 -830 99 -1155 40 -47 -9 -130 -30 -185 -46 -55 -17 -107 -32 -115 -34
-8 -2 -24 -6 -35 -10 -39 -14 41 31 95 53 80 32 139 47 280 74 249 46 822 26
1030 -37 112 -33 318 -105 375 -131 28 -12 78 -34 112 -47 55 -23 62 -23 66
-9 4 16 5 16 6 0 1 -21 12 -24 136 -43 106 -16 155 -19 155 -9 0 19 -42 68
-113 129 -44 39 -96 86 -116 105 -19 19 -32 29 -27 22 10 -17 2 -15 -55 13
-90 46 -211 86 -283 93 l-71 7 37 18 c41 19 188 24 234 7 45 -17 37 -5 -13 21
-39 20 -61 24 -138 24 -85 0 -91 1 -81 18 6 9 15 17 21 17 15 0 85 67 85 81 0
7 -10 9 -24 7 l-24 -5 28 51 c43 78 53 143 35 229 -18 87 -18 94 0 44 21 -57
29 -132 17 -165 -10 -29 -10 -30 14 -17 14 7 72 25 129 40 l104 28 63 -23 c70
-25 139 -69 163 -102 8 -13 15 -17 15 -11 0 20 -25 68 -37 70 -7 2 -33 19 -59
38 -49 37 -97 62 -309 154 -81 35 -130 62 -130 71 0 9 -8 14 -20 12 -16 -3
-17 -1 -7 11 10 12 9 16 -3 21 -9 3 -13 2 -10 -4 3 -6 2 -10 -3 -10 -6 0 -15
13 -20 30 -11 29 -10 29 11 16 12 -8 74 -32 137 -54 126 -43 187 -71 238 -109
46 -35 39 -15 -14 39 -32 32 -87 68 -177 115 -101 51 -145 81 -192 128 -67 65
-91 111 -52 99 43 -13 200 -96 241 -127 148 -111 208 -162 217 -184 5 -14 11
-24 13 -22 2 2 0 47 -4 99 -7 90 -7 92 -8 28 -1 -38 -6 -68 -10 -68 -4 0 -24
17 -44 38 l-36 37 -7 130 c-4 72 -11 153 -15 180 -4 28 -6 54 -3 59 6 9 30
-49 43 -104 7 -31 8 -27 9 28 0 35 7 95 15 135 51 259 58 309 51 391 -8 93 3
146 40 197 82 112 85 118 80 182 -3 33 -11 67 -17 75 -10 13 -10 14 0 8 16
-10 15 -3 -11 83 l-23 74 -12 -64 c-7 -39 -8 -67 -2 -73 5 -5 7 -23 4 -40 -5
-24 -3 -28 5 -16 9 12 10 10 5 -11 -3 -16 -1 -30 6 -34 13 -8 -90 -110 -120
-120 -16 -5 -16 -10 -3 -68 22 -92 12 -235 -26 -369 -19 -66 -31 -134 -33
-177 -1 -41 -5 -66 -10 -59 -5 9 -8 7 -8 -6 0 -11 -2 -17 -5 -14 -3 3 2 61 11
129 18 138 14 322 -9 399 -13 44 -13 43 -9 -45 2 -49 -1 -101 -6 -115 -8 -19
-11 6 -12 105 0 149 -19 238 -74 366 -63 145 -149 276 -263 401 -51 56 -57 53
-9 -5 46 -57 126 -187 174 -283 66 -131 81 -195 88 -372 3 -86 12 -180 20
-209 8 -28 14 -62 14 -75 -2 -61 -82 154 -140 377 -86 329 -231 572 -465 784
-141 128 -419 285 -585 330 -177 49 -517 91 -735 91 l-80 0 30 -29 c29 -28 35
-30 150 -36 66 -3 161 -10 210 -15 50 -6 151 -12 225 -14 200 -7 348 -49 474
-135 214 -144 258 -182 386 -336 82 -98 200 -273 230 -340 36 -82 69 -174 85
-236 9 -32 18 -66 21 -76 4 -10 -21 24 -55 74 -120 179 -306 366 -456 457 -66
40 -134 70 -142 63 -2 -2 31 -43 72 -91 41 -49 85 -106 97 -127 13 -24 73 -82
149 -145 317 -262 471 -476 539 -749 17 -66 30 -137 30 -158 0 -26 4 -36 12
-31 7 4 8 3 4 -4 -4 -6 1 -24 11 -39 14 -21 19 -53 22 -150 1 -68 0 -123 -3
-123 -4 0 -46 40 -94 88 l-87 88 12 47 c14 56 9 127 -9 138 -7 5 -10 9 -6 9
10 0 -29 108 -49 139 -10 15 -16 30 -15 35 2 5 -3 4 -10 -2 -16 -13 -44 0 -34
16 3 6 -4 5 -19 -1 -13 -7 -26 -19 -29 -27 -2 -8 -4 1 -5 21 -1 48 -74 191
-124 246 -114 124 -303 223 -491 258 -76 14 -113 15 -308 4 -172 -9 -250 -9
-347 1 -133 12 -360 62 -371 81 -4 6 -10 10 -14 10 -23 -3 -36 0 -31 9 3 5 0
7 -9 4 -8 -3 -28 4 -44 16 -18 14 -35 19 -44 15 -10 -6 -10 -5 -1 5 10 11 16
10 35 -2 13 -8 50 -17 82 -20 33 -3 62 -10 64 -16 2 -6 10 -8 18 -5 7 3 11 10
7 16 -3 6 -1 7 6 3 6 -4 9 -12 5 -17 -3 -6 5 -7 23 -3 42 10 63 23 60 37 -1 7
13 13 38 15 22 2 43 8 46 14 9 13 138 11 155 -3 8 -6 30 -9 49 -7 23 3 34 0
31 -7 -2 -7 12 -11 38 -10 127 1 377 -18 467 -35 140 -27 188 -44 288 -102 89
-51 101 -55 101 -35 0 8 4 7 10 -3 5 -8 10 -11 10 -6 0 5 18 -10 41 -35 23
-24 38 -38 34 -30 -12 22 129 -121 158 -159 33 -46 116 -212 162 -325 46 -115
54 -132 77 -177 10 -21 28 -61 38 -90 19 -51 19 -51 14 -13 -8 51 -69 274 -94
340 -103 276 -298 500 -565 650 -129 73 -273 113 -530 150 -60 9 -139 22 -175
30 -129 28 -305 98 -294 117 3 5 13 6 23 3 43 -19 189 -55 216 -54 l30 0 -25
12 -25 11 33 4 33 3 -22 20 c-12 10 -26 19 -32 19 -13 0 -79 41 -74 46 14 14
377 -56 502 -98 130 -43 313 -89 292 -74 -31 24 -269 143 -367 184 -52 23
-167 62 -255 87 -224 65 -217 62 -197 87 10 11 22 25 28 32 14 14 31 46 45 82
l10 28 -23 -19 c-12 -11 -29 -28 -36 -38 -8 -10 -40 -48 -71 -85 -31 -37 -68
-85 -81 -107 -32 -54 -46 -66 -63 -59 -12 4 -6 15 24 45 22 22 56 64 75 95 35
55 79 103 165 181 l46 41 104 -41 c57 -22 187 -83 289 -135 102 -52 224 -109
271 -127 47 -18 115 -48 150 -67 35 -18 67 -34 72 -36 25 -12 -85 85 -131 116
-31 20 -82 55 -112 77 -134 100 -318 195 -525 273 -125 46 -199 68 -405 116
-80 18 -166 40 -192 49 l-48 15 51 -57 c28 -31 83 -104 121 -163 56 -85 74
-106 87 -99 9 4 51 25 94 46 42 20 77 41 77 44 0 4 -19 17 -42 29 -80 41 -188
101 -210 116 -31 22 -14 20 30 -4 20 -10 97 -39 171 -62 74 -24 137 -49 139
-55 2 -7 -2 -13 -10 -13 -16 0 -79 -34 -149 -81 -62 -40 -242 -139 -255 -139
-5 0 13 16 40 35 27 19 50 36 52 37 1 2 -20 4 -47 4 -27 0 -49 -3 -49 -8 0 -4
-4 -7 -8 -6 -17 6 -92 -37 -87 -50 3 -7 0 -10 -5 -7 -6 3 -10 -3 -10 -14 0
-38 -19 -31 -46 16 -15 27 -53 91 -84 143 -31 52 -97 183 -146 290 -49 107
-110 228 -137 268 -58 89 -138 247 -162 322 -17 51 -19 53 -26 28 -10 -38 -61
-135 -126 -241 -144 -234 -180 -317 -219 -497 -32 -147 -15 -358 41 -505 53
-142 203 -336 345 -449 l35 -27 -35 17 c-92 45 -237 184 -308 293 -132 206
-172 449 -126 770 l7 44 -34 -25 c-37 -29 -200 -112 -294 -151 -170 -71 -379
-116 -471 -102 -25 3 -89 29 -142 57 -118 61 -137 76 -51 40 58 -24 76 -27
184 -27 119 0 121 1 265 52 145 51 364 139 421 169 26 13 30 20 25 42 -5 26
-5 26 6 5 20 -41 108 -23 108 21 0 23 71 148 165 291 101 154 185 327 191 396
8 79 32 156 76 236 47 83 98 197 98 216 0 7 8 21 16 32 16 19 16 19 9 -5 -5
-19 -4 -21 4 -10 6 8 11 23 11 32 0 9 4 20 10 23 6 3 7 -1 4 -9 -10 -25 8 -18
41 15 16 17 31 26 33 20 2 -5 12 -1 23 10 20 20 21 20 34 2 19 -25 38 -5 38
39 0 18 2 27 5 20 2 -6 8 -10 13 -7 5 4 6 -1 3 -9 -3 -9 -1 -16 5 -16 10 0 15
14 12 33 0 4 4 7 9 7 17 0 11 -18 -15 -46 -14 -15 -35 -46 -47 -70 -11 -24
-26 -40 -31 -37 -6 3 -7 1 -3 -5 4 -6 -5 -29 -19 -51 -14 -23 -25 -42 -25 -44
0 -8 -138 -254 -172 -307 -73 -115 -79 -132 -63 -187 19 -63 99 -218 113 -218
6 0 14 -3 18 -7 4 -5 2 -8 -5 -8 -33 0 201 -248 243 -258 7 -2 57 43 110 99
53 56 99 99 102 96 15 -15 -24 -72 -100 -144 l-82 -78 236 -1 c227 0 269 -4
450 -40 33 -7 30 -2 -67 92 -100 97 -170 189 -219 286 -41 80 -24 93 23 18 77
-123 128 -182 239 -280 104 -93 120 -102 275 -174 90 -42 168 -76 173 -76 5 0
-4 11 -20 25 l-29 26 46 -20 c65 -27 358 -193 445 -252 101 -68 237 -182 308
-260 105 -113 224 -287 303 -443 l20 -38 16 88 c9 49 21 128 28 176 11 88 11
88 -15 120 -15 18 -62 78 -105 133 -122 156 -300 294 -688 535 -325 202 -547
374 -769 595 -165 165 -247 267 -289 363 -15 34 -31 62 -34 62 -4 0 -22 -31
-39 -70 -47 -101 -189 -285 -337 -437 -45 -47 -65 -61 -80 -57 -13 4 -16 2 -7
-4 9 -6 2 -17 -27 -40 -22 -18 -43 -32 -48 -32 -4 0 3 7 15 16 12 8 20 19 17
24 -3 4 5 10 17 13 18 5 19 8 8 22 -7 9 -9 15 -4 14 5 -1 18 -1 29 0 15 1 17
3 6 10 -11 7 -8 13 14 27 73 48 158 131 152 148 -4 10 0 12 16 8 19 -5 20 -3
9 10 -11 14 -10 17 8 20 12 2 31 19 43 37 12 19 17 32 12 29 -6 -3 -17 1 -25
10 -13 14 -13 15 0 10 18 -6 68 44 62 62 -3 7 0 10 6 6 6 -3 18 8 26 26 13 25
14 33 4 41 -10 7 -10 10 0 14 6 2 12 11 12 19 0 17 17 19 23 2 7 -22 20 0 22
36 0 19 -4 34 -10 33 -5 -1 -9 3 -8 10 1 6 -5 10 -15 9 -9 -2 -18 -12 -20 -24
-2 -12 -15 -25 -33 -31 -18 -6 -27 -6 -24 -1 4 6 13 10 21 10 8 0 14 5 14 11
0 18 37 59 45 51 5 -4 5 -2 2 4 -3 5 16 35 44 65 l49 54 36 -40 c20 -22 55
-65 77 -95 23 -30 54 -68 69 -85 15 -16 28 -33 28 -36 0 -9 230 -222 235 -217
2 2 -14 24 -35 48 -41 46 -48 60 -30 60 6 0 10 -4 10 -9 0 -4 27 -38 60 -74
65 -70 142 -127 173 -127 18 0 17 3 -6 43 -37 62 -165 320 -247 496 -113 243
-349 711 -359 711 -5 0 -57 -96 -116 -212 -59 -117 -130 -256 -158 -308 -52
-99 -122 -238 -152 -302 -10 -21 -22 -35 -28 -31 -5 3 -7 1 -4 -5 10 -15 -3
-43 -16 -35 -6 4 -8 0 -4 -9 4 -11 0 -15 -11 -14 -9 2 -17 10 -17 19 0 8 -4
19 -8 23 -11 11 -9 26 3 19 6 -3 10 1 10 10 0 25 116 247 186 355 33 52 69
110 80 128 10 17 22 32 26 32 4 0 8 5 8 11 0 6 10 25 22 42 12 17 22 42 23 56
0 15 6 25 13 23 7 -1 16 8 21 20 31 80 46 114 53 123 6 6 7 2 3 -10 -3 -11 3
-3 14 19 11 21 24 43 29 50 5 6 12 108 16 226 6 237 13 303 30 297 6 -2 21
-32 34 -68 13 -35 27 -68 33 -73 5 -6 9 -15 9 -22 0 -7 18 -41 40 -77 21 -36
42 -77 46 -91 3 -14 12 -30 20 -37 8 -6 14 -18 14 -26 0 -8 8 -27 19 -41 10
-15 22 -38 26 -52 4 -14 11 -30 16 -36 8 -10 29 -49 74 -134 19 -37 61 -130
75 -167 7 -18 16 -33 21 -33 5 0 9 -8 9 -18 0 -10 11 -33 25 -52 14 -19 25
-38 25 -43 0 -4 11 -23 24 -40 13 -18 26 -41 29 -52 21 -74 98 -237 123 -259
40 -35 117 -75 269 -139 72 -31 158 -69 191 -86 34 -17 83 -40 108 -51 l47
-20 10 28 c6 15 17 43 24 62 l14 35 0 -33 c1 -25 6 -35 21 -39 11 -3 20 -8 20
-12 0 -12 -40 -51 -53 -51 -19 -1 15 -24 178 -121 83 -49 179 -112 215 -139
36 -27 112 -86 169 -130 75 -57 107 -76 113 -67 4 6 20 44 35 82 23 60 28 66
33 45 l6 -24 17 24 c27 39 20 2 -12 -66 -16 -34 -39 -68 -50 -76 -21 -15 -21
-16 45 -77 64 -59 68 -60 81 -41 8 11 23 25 34 31 17 9 20 8 18 -8 -5 -26 9
-43 34 -43 21 0 21 0 2 -14 -11 -7 -29 -15 -40 -18 -17 -3 -12 -13 40 -68 34
-36 89 -98 124 -137 35 -40 68 -70 74 -66 6 3 7 1 3 -6 -8 -12 23 -58 137
-203 64 -83 102 -144 184 -298 19 -36 36 -66 38 -68 7 -8 102 70 125 103 14
19 30 33 36 31 15 -6 46 86 38 109 -5 13 -4 16 4 11 8 -5 12 0 12 14 0 11 9
55 20 98 11 42 21 102 22 133 2 32 6 55 10 53 11 -7 21 61 13 86 -5 15 -4 20
4 16 7 -5 11 4 11 25 0 28 24 191 50 339 5 30 15 105 21 165 6 61 20 148 31
194 11 46 18 96 16 112 -3 15 -1 26 4 23 16 -10 7 13 -12 31 -21 19 -18 20
-72 -24 -9 -8 -14 -19 -11 -24 3 -6 2 -7 -3 -4 -12 7 -100 -61 -96 -75 1 -5
-2 -6 -9 -3 -6 4 -24 -5 -39 -20 -16 -16 -53 -45 -82 -65 -29 -21 -52 -42 -51
-48 2 -10 -59 -62 -73 -62 -5 0 7 14 26 31 l35 31 -35 -23 c-19 -13 -97 -74
-172 -135 -75 -62 -146 -115 -157 -119 -12 -3 -21 -10 -21 -14 0 -5 -13 -14
-30 -21 -16 -7 -30 -16 -30 -20 0 -10 -116 -60 -140 -60 -38 0 -24 44 31 97
74 70 136 155 175 240 45 99 79 223 70 258 -6 24 -11 27 -36 21 -38 -7 -199
-107 -245 -151 -19 -19 -40 -35 -45 -35 -6 0 -10 -4 -10 -9 0 -15 -73 -92 -84
-88 -7 2 -11 58 -11 158 -1 110 -5 168 -17 204 -8 28 -27 95 -41 150 -13 55
-37 132 -52 170 -14 39 -32 90 -39 115 -8 25 -21 59 -29 75 -9 17 -26 62 -37
100 -31 105 -41 125 -59 125 -19 0 -61 -42 -82 -81 -68 -129 -106 -181 -163
-219 -62 -43 -69 -73 -61 -271 4 -96 10 -200 14 -231 4 -32 4 -58 -1 -58 -4 0
-8 3 -8 8 0 4 -14 23 -31 41 -19 21 -24 31 -13 27 23 -9 34 10 33 54 l-1 35
-7 -30 c-5 -25 -11 -31 -41 -33 -19 -2 -51 1 -70 7 l-36 11 -11 122 c-13 140
-32 194 -128 373 -33 61 -64 121 -69 135 -5 14 -14 32 -21 40 -18 21 -132 253
-144 292 -70 226 -102 240 -185 82 -14 -27 -53 -76 -87 -109 -89 -88 -93 -100
-89 -230 8 -243 7 -260 -15 -260 -19 0 -35 24 -123 185 -46 85 -43 80 -96 191
-25 53 -46 100 -46 104 0 5 -6 16 -14 24 -14 16 -146 272 -146 283 0 3 -17 35
-38 69 -40 68 -92 179 -92 198 0 21 -32 61 -49 61 -9 0 -24 -7 -35 -15z m979
-526 c18 -52 43 -115 56 -141 115 -225 201 -393 220 -428 63 -115 87 -188 96
-291 4 -55 4 -57 -19 -56 -12 0 -27 -1 -33 -2 -5 -2 -26 -3 -46 -2 -31 1 -39
6 -53 34 -8 17 -16 28 -16 22 -1 -5 -10 6 -21 25 -21 37 -21 32 9 -70 48 -163
33 -161 -26 5 -22 61 -69 173 -104 250 -35 77 -73 159 -83 183 -11 24 -24 41
-31 38 -7 -3 -10 2 -7 13 2 10 -3 25 -11 34 -9 8 -16 19 -16 24 -1 15 -47 61
-69 68 -13 4 -29 22 -37 40 -18 45 -55 83 -74 77 -11 -4 -10 -1 3 12 23 23 22
29 -5 20 -21 -6 -21 -6 -5 10 13 13 21 15 37 6 13 -7 20 -7 20 0 0 5 -7 10
-16 10 -14 0 -14 3 -4 15 7 9 18 14 24 12 14 -5 94 98 103 131 9 38 43 73 61
63 8 -5 30 -51 47 -102z m-1825 54 c0 -8 11 -28 25 -45 14 -16 28 -42 31 -56
8 -34 23 -52 48 -62 19 -7 19 -7 -2 -26 -12 -10 -22 -26 -22 -36 0 -22 -20
-34 -30 -18 -8 13 -20 -9 -20 -35 0 -8 -11 -31 -25 -51 -14 -20 -25 -43 -25
-51 0 -19 -36 -99 -129 -288 -90 -184 -171 -364 -172 -385 0 -10 -2 -11 -6 -3
-2 7 5 37 16 68 22 60 159 364 171 380 21 28 109 248 110 273 0 2 -6 0 -12 -5
-7 -4 -5 6 6 21 16 26 17 35 7 80 -6 28 -9 90 -7 139 3 51 0 87 -5 87 -6 0 -5
8 1 20 12 22 40 17 40 -7z m-81 -185 c0 -16 -2 -18 -6 -8 -3 8 -11 18 -17 22
-7 5 -4 8 7 8 11 0 17 -7 16 -22z m128 -100 c-3 -7 -5 -2 -5 12 0 14 2 19 5
13 2 -7 2 -19 0 -25z m2679 -105 c16 -74 47 -166 69 -205 8 -14 15 -34 15 -45
0 -10 9 -33 20 -51 11 -18 20 -42 20 -53 0 -11 8 -34 17 -52 18 -35 40 -113
54 -197 6 -30 17 -85 25 -121 15 -72 18 -131 8 -191 -8 -44 -21 -49 -30 -13
-5 20 -9 23 -20 14 -8 -6 -14 -19 -14 -29 0 -19 -43 -36 -61 -24 -24 14 -69
-57 -69 -110 0 -24 -3 -27 -10 -16 -5 8 -10 32 -10 52 0 20 -4 59 -9 85 -6 26
-20 109 -31 183 -12 74 -29 164 -37 198 -23 93 -78 234 -88 225 -4 -5 -5 -3
-2 4 9 14 -2 43 -15 43 -5 0 -7 -10 -3 -22 5 -20 4 -20 -5 -6 -8 13 -7 25 5
48 9 17 11 30 5 30 -5 0 -10 -5 -10 -12 0 -17 -13 0 -17 22 -2 14 2 18 13 13
10 -4 15 -1 14 8 -3 20 11 59 20 59 13 0 55 92 55 120 0 18 5 25 18 24 10 -1
16 3 14 10 -4 12 21 35 40 36 7 0 15 -12 19 -27z m-3694 -112 c7 10 8 7 4 -11
-3 -14 -6 -34 -6 -44 0 -11 -3 -17 -6 -13 -10 9 -22 76 -15 82 3 4 8 -1 10
-11 2 -14 5 -14 13 -3z m1509 -38 c-12 -20 -14 -14 -5 12 4 9 9 14 11 11 3 -2
0 -13 -6 -23z m434 -179 c39 -50 99 -129 134 -175 62 -80 126 -188 116 -197
-5 -6 -167 163 -274 288 -46 52 -86 96 -91 98 -4 2 -41 -39 -81 -90 -95 -121
-136 -167 -143 -162 -3 2 -4 1 -1 -3 8 -10 -16 -33 -28 -26 -5 3 -8 2 -4 -3 3
-5 -32 -49 -77 -97 -45 -48 -81 -90 -79 -92 2 -3 0 -3 -4 0 -3 3 -12 0 -20 -6
-25 -22 -13 0 50 84 34 46 68 93 76 105 8 11 19 18 25 15 6 -3 8 -3 4 2 -11
12 0 28 127 185 64 80 127 162 138 183 l22 38 20 -27 c11 -15 52 -69 90 -120z
m-1938 114 c-3 -8 -6 -5 -6 6 -1 11 2 17 5 13 3 -3 4 -12 1 -19z m3463 -27 c0
-5 -9 -11 -20 -14 -22 -6 -28 8 -7 16 19 8 27 8 27 -2z m-976 -61 c8 0 17 -11
20 -24 3 -13 9 -32 12 -43 4 -10 -12 8 -35 40 -22 32 -41 61 -41 65 0 3 7 -4
16 -16 8 -12 21 -22 28 -22z m-2246 -4 c3 -13 -1 -17 -14 -14 -11 2 -20 11
-22 22 -3 13 1 17 14 14 11 -2 20 -11 22 -22z m873 -59 c-10 -9 -11 -8 -5 6 3
10 9 15 12 12 3 -3 0 -11 -7 -18z m-1300 -64 c-12 -20 -14 -14 -5 12 4 9 9 14
11 11 3 -2 0 -13 -6 -23z m1919 -84 c0 -6 -4 -7 -10 -4 -5 3 -10 11 -10 16 0
6 5 7 10 4 6 -3 10 -11 10 -16z m20 -40 c0 -6 -4 -7 -10 -4 -5 3 -10 11 -10
16 0 6 5 7 10 4 6 -3 10 -11 10 -16z m-702 -42 c-14 -15 -103 -58 -233 -112
-116 -48 -253 -109 -305 -135 -125 -63 -342 -195 -460 -280 -120 -87 -334
-281 -492 -448 -37 -39 -73 -74 -81 -79 -15 -8 -37 -201 -37 -323 0 -33 -4
-60 -8 -60 -5 0 -9 8 -9 18 1 9 0 78 -2 152 l-2 135 -30 -35 c-17 -19 -47 -62
-66 -95 -20 -33 -42 -63 -47 -67 -6 -4 -7 -8 -2 -8 4 0 -3 -15 -16 -32 -14
-18 -35 -52 -48 -75 -13 -24 -27 -43 -32 -43 -4 0 -7 -3 -6 -7 0 -5 -2 -16 -7
-26 -7 -17 -8 -17 -21 0 -13 16 -13 15 -4 -10 7 -19 7 -26 0 -22 -6 3 -11 -1
-11 -9 -2 -20 -3 -25 -16 -56 l-10 -25 -8 25 -8 24 -14 -28 c-12 -22 -12 -31
-2 -40 9 -8 10 -8 5 1 -4 7 -2 21 3 30 9 16 10 14 11 -9 0 -15 -12 -49 -28
-75 -47 -83 -121 -255 -141 -330 -7 -24 -14 -43 -17 -43 -3 0 -3 10 1 23 5 19
5 20 -5 4 -6 -9 -9 -27 -6 -40 3 -12 3 -16 0 -9 -12 25 -19 11 -16 -30 2 -32
1 -39 -7 -28 -6 8 -11 11 -11 5 0 -5 -4 -4 -8 2 -4 7 -8 -12 -7 -41 0 -30 -2
-53 -5 -51 -3 2 -12 -6 -19 -17 -11 -18 -11 -20 4 -14 11 4 15 2 12 -6 -2 -7
-12 -13 -21 -13 -10 0 -24 -9 -32 -19 -15 -21 -17 -15 -8 21 4 13 11 20 17 16
6 -3 7 -1 3 6 -9 15 3 53 15 46 5 -3 6 0 3 8 -7 20 78 270 133 387 41 88 43
96 26 107 -9 7 -22 13 -27 13 -6 1 -24 12 -41 25 -21 18 -30 34 -31 57 -1 18
-5 41 -9 52 -4 10 12 -3 38 -30 25 -27 59 -57 75 -66 l30 -18 30 48 c17 26 47
82 68 124 21 42 42 74 47 71 6 -3 7 -1 3 5 -8 14 29 81 127 224 98 145 211
284 227 280 6 -1 9 2 5 8 -3 5 21 38 55 72 62 65 70 78 45 78 -19 0 -165 72
-165 82 0 4 6 5 14 2 7 -3 20 2 29 10 13 14 22 12 84 -21 37 -19 75 -42 84
-49 13 -12 21 -8 58 29 41 40 43 44 37 85 -3 24 -15 65 -26 90 -22 48 -106
178 -122 188 -20 12 -19 -6 1 -27 21 -23 27 -40 14 -38 -21 3 -21 -5 3 -47 14
-25 24 -48 21 -50 -4 -5 -70 72 -107 126 -14 19 -60 77 -102 128 -78 92 -88
116 -26 64 18 -15 50 -36 71 -47 20 -11 37 -23 37 -27 0 -5 7 -8 16 -8 9 0 12
-5 8 -12 -4 -7 -3 -8 4 -4 6 4 38 -18 72 -51 34 -32 69 -58 78 -58 9 0 18 -9
20 -20 2 -11 17 -68 34 -126 l31 -107 41 40 c78 75 340 261 533 378 40 24 69
47 64 50 -16 10 -19 49 -5 61 8 6 14 21 15 33 0 14 7 5 18 -24 11 -25 17 -48
14 -52 -10 -17 25 -5 123 42 104 50 471 183 482 175 2 -2 -7 -14 -20 -28z
m600 8 c-3 -3 -9 2 -12 12 -6 14 -5 15 5 6 7 -7 10 -15 7 -18z m-19 -9 c9 -10
8 -16 -4 -26 -13 -11 -14 -10 -8 6 6 17 5 18 -12 4 -17 -14 -17 -14 -4 8 16
26 14 25 28 8z m1511 5 c0 -5 3 -18 6 -28 6 -16 5 -16 -9 2 -19 23 -21 35 -7
35 6 0 10 -4 10 -9z m-1460 -51 c0 -5 -5 -12 -11 -16 -14 -8 -33 11 -25 25 7
11 36 4 36 -9z m-94 -7 c-2 -2 -7 -4 -11 -3 -3 0 -16 -11 -27 -25 -11 -14 -22
-24 -25 -21 -8 8 49 66 59 60 5 -3 7 -8 4 -11z m-1849 -45 c-3 -7 -5 -2 -5 12
0 14 2 19 5 13 2 -7 2 -19 0 -25z m543 -39 c0 -5 -7 -31 -15 -57 -8 -26 -19
-66 -25 -89 -6 -24 -14 -43 -18 -43 -5 0 3 45 17 100 14 55 29 100 33 100 5 0
8 -5 8 -11z m-1683 -31 c-3 -7 -5 -2 -5 12 0 14 2 19 5 13 2 -7 2 -19 0 -25z
m2999 -40 c-18 -26 -22 -17 -5 14 6 11 13 17 16 15 3 -3 -2 -16 -11 -29z
m2747 17 c20 -9 23 -33 3 -41 -8 -3 -12 -13 -9 -24 6 -24 -13 -82 -35 -106
-10 -10 -18 -21 -18 -24 -1 -15 -50 -110 -57 -110 -5 0 -5 -4 -2 -10 3 -5 1
-10 -6 -10 -7 0 -10 11 -7 29 4 25 2 27 -13 18 -10 -6 -15 -15 -13 -19 3 -5
-3 -11 -13 -15 -25 -9 -46 -28 -118 -108 l-27 -30 20 30 c11 17 36 64 57 105
20 41 59 112 86 156 48 80 64 118 34 78 -8 -10 -56 -88 -107 -173 -85 -140
-110 -172 -124 -159 -3 3 1 23 9 44 9 27 10 52 5 79 -8 35 -6 42 12 54 11 7
20 19 20 25 0 19 111 126 132 126 6 0 8 3 4 7 -8 9 120 92 137 89 6 -2 20 -6
30 -11z m687 -5 c0 -12 -6 -33 -14 -48 -7 -15 -14 -38 -14 -52 -1 -14 -6 -56
-12 -95 -6 -38 -15 -122 -21 -185 -5 -63 -16 -142 -23 -175 -8 -33 -18 -98
-21 -145 -4 -47 -11 -89 -15 -95 -4 -5 -13 -35 -20 -65 -23 -104 -25 -112 -35
-113 -5 -1 -11 13 -13 31 -2 17 -7 32 -12 32 -10 0 -22 -33 -18 -51 2 -9 -6
-14 -22 -14 -52 -1 -98 -33 -52 -36 9 -1 2 -4 -17 -8 -36 -6 -43 -17 -56 -93
-4 -28 -11 -38 -25 -38 -10 0 -21 5 -23 10 -3 6 -4 5 -3 -2 1 -7 13 -15 27
-19 14 -4 17 -7 7 -8 -26 -2 -48 10 -48 25 0 20 -18 17 -32 -5 -11 -18 -13
-18 -25 -3 -13 15 -13 15 -8 -4 3 -14 -1 -26 -12 -35 -16 -13 -17 -12 -5 3 8
9 11 22 7 27 -3 6 15 82 41 168 114 389 128 443 116 443 -23 0 -103 -67 -230
-192 -126 -124 -152 -147 -152 -134 0 4 33 41 116 127 29 31 50 60 46 64 -4 5
-2 5 5 1 7 -3 21 7 34 26 20 29 21 31 4 18 -11 -8 -23 -19 -27 -25 -7 -9 -9
-8 -12 13 0 5 -9 16 -19 26 -11 11 -15 26 -12 37 4 11 2 19 -4 19 -6 0 -11 -6
-12 -12 0 -7 -5 0 -9 16 -6 17 -5 36 0 45 6 10 10 11 10 4 0 -7 9 -13 20 -13
25 0 25 9 3 26 -17 13 -17 15 0 28 9 7 17 18 17 24 0 6 -8 13 -17 16 -12 3
-11 4 4 3 12 -1 21 3 20 8 -1 6 -6 9 -10 7 -5 -1 -6 2 -2 8 3 5 12 10 20 10 8
0 18 6 22 14 4 7 18 18 31 25 12 7 20 16 17 21 -3 6 1 7 10 4 19 -8 47 14 38
29 -4 7 0 8 11 4 13 -5 17 -3 13 7 -4 10 0 12 15 8 17 -4 20 -2 15 11 -3 8 1
21 9 27 9 8 14 9 14 2 0 -6 -6 -12 -12 -15 -7 -2 -1 -4 14 -3 14 0 24 4 22 7
-2 4 14 18 35 32 28 19 41 23 49 15 8 -8 13 -7 18 5 3 9 14 17 23 17 10 0 27
9 38 20 16 14 23 16 27 7 4 -7 4 -2 2 11 -2 12 0 20 4 17 5 -3 22 18 39 47 32
57 76 108 91 108 6 0 10 -9 10 -20z m15 -35 c-4 -25 -9 -44 -12 -41 -2 2 -1
25 2 51 4 25 9 44 12 41 2 -2 1 -25 -2 -51z m-3685 22 c0 -2 -10 -12 -22 -23
l-23 -19 19 23 c18 21 26 27 26 19z m-1403 -124 c-3 -10 -5 -2 -5 17 0 19 2
27 5 18 2 -10 2 -26 0 -35z m4768 -33 c-10 -11 -23 -20 -29 -20 -6 0 0 9 14
20 32 25 38 25 15 0z m-1825 -54 c34 -15 83 -42 105 -59 5 -4 85 -54 176 -111
91 -57 186 -118 210 -135 185 -134 254 -188 324 -255 44 -41 83 -76 87 -76 8
0 88 -119 88 -131 0 -5 -35 26 -77 69 -234 234 -535 461 -847 640 -47 27 -82
53 -78 57 4 5 0 6 -9 2 -9 -3 -29 5 -45 19 l-29 24 30 -14 c17 -8 46 -21 65
-30z m1888 19 c-3 -3 -9 2 -12 12 -6 14 -5 15 5 6 7 -7 10 -15 7 -18z m-4393
-69 c-11 -8 -26 -11 -34 -8 -9 3 -12 1 -7 -6 5 -8 2 -10 -10 -5 -15 5 -15 7 0
15 9 5 20 7 25 3 5 -3 12 -1 16 5 3 5 11 10 18 10 6 0 2 -6 -8 -14z m4195 -1
c-7 -8 -18 -15 -24 -15 -6 0 -2 7 8 15 25 19 32 19 16 0z m-1170 -11 c0 -2 -7
-4 -15 -4 -8 0 -15 4 -15 10 0 5 7 7 15 4 8 -4 15 -8 15 -10z m-1657 -19 c-3
-9 -8 -14 -10 -11 -3 3 -2 9 2 15 9 16 15 13 8 -4z m-473 -14 c0 -5 -7 -12
-16 -15 -14 -5 -15 -4 -4 9 14 17 20 19 20 6z m445 -32 c-2 -11 -13 -35 -24
-52 -17 -27 -21 -29 -27 -14 -7 20 13 50 29 40 6 -4 8 0 4 9 -3 9 0 21 6 27
15 15 16 14 12 -10z m-474 -3 c5 3 9 1 9 -4 0 -10 -30 -25 -37 -19 -2 2 0 12
4 23 4 11 8 13 11 6 2 -7 8 -10 13 -6z m-1593 -21 c-3 -3 -9 2 -12 12 -6 14
-5 15 5 6 7 -7 10 -15 7 -18z m-1021 -7 c-3 -8 -6 -5 -6 6 -1 11 2 17 5 13 3
-3 4 -12 1 -19z m10 -65 c-3 -10 -5 -4 -5 12 0 17 2 24 5 18 2 -7 2 -21 0 -30z
m2797 -60 c-21 -27 -40 -50 -41 -52 -2 -2 -6 -2 -9 2 -5 5 73 97 83 97 2 0
-13 -21 -33 -47z m981 -144 c66 -67 107 -113 90 -101 -16 11 -53 44 -80 74
-124 132 -139 148 -134 148 2 0 58 -55 124 -121z m2008 -31 c-6 -11 -31 -10
-37 1 -3 5 5 8 18 7 13 0 22 -4 19 -8z m-4493 -81 c0 -2 -10 -12 -22 -23 l-23
-19 19 23 c18 21 26 27 26 19z m4870 -237 c0 -5 -4 -10 -9 -10 -6 0 -13 5 -16
10 -3 6 1 10 9 10 9 0 16 -4 16 -10z m31 -28 c-6 -2 -11 -22 -11 -43 0 -24 -4
-38 -10 -34 -16 10 -12 72 5 79 8 3 16 13 16 23 1 15 2 15 6 -2 3 -10 0 -21
-6 -23z m711 -243 c-4 -290 -28 -533 -66 -672 -9 -32 -16 -72 -16 -88 0 -18
-4 -28 -10 -24 -5 3 -10 -3 -10 -15 0 -12 -4 -18 -10 -15 -9 6 -11 -1 -14 -47
-2 -28 -16 -33 -16 -5 0 17 -5 27 -14 27 -8 0 -16 6 -19 13 -3 9 -9 9 -23 1
-15 -9 -22 -8 -31 5 -11 14 -14 14 -23 1 -8 -13 -10 -13 -10 3 0 9 -4 17 -10
17 -5 0 -10 9 -10 20 0 11 6 20 14 20 12 0 14 12 11 53 -1 28 -6 60 -10 70 -7
17 -9 17 -26 1 -11 -10 -18 -22 -17 -28 1 -6 -9 -45 -22 -86 -13 -41 -23 -80
-23 -88 0 -7 -4 -9 -8 -5 -8 8 45 222 90 367 24 79 26 90 6 56 -14 -24 -14
-24 -15 -3 0 12 -4 23 -9 25 -11 4 -23 50 -23 91 0 17 -6 27 -15 27 -12 0 -14
9 -10 40 3 22 1 40 -4 40 -23 0 -5 42 37 85 25 27 52 59 61 71 8 13 22 24 29
24 8 0 14 5 14 11 0 7 10 21 23 33 34 34 67 75 67 85 0 5 13 21 30 34 16 14
31 35 33 45 2 11 9 27 16 36 32 39 36 12 33 -225z m-5722 171 c10 -20 44 -78
74 -128 31 -50 56 -98 56 -107 0 -8 9 -23 20 -32 11 -10 20 -23 20 -30 0 -6 8
-17 18 -22 9 -6 13 -11 9 -11 -19 0 -72 50 -126 120 -67 88 -102 147 -129 217
l-19 51 29 -10 c18 -6 36 -24 48 -48z m598 24 c30 -21 28 -34 -16 -85 -47 -54
-56 -77 -40 -98 11 -14 11 -14 -4 -3 -9 7 -19 9 -21 5 -3 -5 17 -20 45 -33
143 -68 -96 -1 -272 76 -128 56 -230 112 -230 126 0 5 19 5 43 1 70 -13 326
-6 392 10 78 20 77 20 103 1z m3595 -9 c-3 -9 -8 -14 -10 -11 -3 3 -2 9 2 15
9 16 15 13 8 -4z m-4571 -30 c2 -19 0 -35 -4 -35 -4 0 -8 16 -8 35 0 19 2 35
4 35 2 0 6 -16 8 -35z m-1239 -160 c80 -230 72 -233 -11 -5 -28 74 -53 144
-57 155 -7 20 -7 20 8 0 8 -11 35 -79 60 -150z m6364 103 c-3 -8 -6 -5 -6 6
-1 11 2 17 5 13 3 -3 4 -12 1 -19z m220 0 c-3 -8 -6 -5 -6 6 -1 11 2 17 5 13
3 -3 4 -12 1 -19z m-146 -38 c21 -12 26 -40 6 -40 -17 0 -57 29 -57 41 0 12
27 12 51 -1z m156 -12 c-3 -8 -6 -5 -6 6 -1 11 2 17 5 13 3 -3 4 -12 1 -19z
m-4949 -202 c26 -41 90 -119 142 -172 l95 -97 -55 29 c-30 15 -90 63 -132 106
l-78 77 0 -42 c0 -23 -9 -78 -20 -122 -35 -143 -53 -292 -48 -405 5 -94 10
-116 47 -209 23 -56 57 -127 76 -157 19 -30 35 -59 35 -64 0 -5 6 -13 14 -17
8 -4 15 -12 16 -18 0 -5 19 -34 40 -63 22 -29 40 -58 40 -64 0 -6 3 -9 6 -5 3
3 28 -18 54 -46 75 -80 49 -70 -36 14 -167 163 -294 367 -330 528 l-16 72 -53
-73 c-113 -155 -345 -566 -345 -610 0 -11 5 -15 14 -12 9 3 12 12 9 21 -4 11
-2 14 5 9 8 -4 12 0 12 10 0 10 12 30 26 46 22 22 31 25 46 17 10 -5 17 -6 17
-2 -3 14 21 66 28 60 14 -15 -68 -156 -135 -231 -39 -43 -60 -90 -64 -136 -1
-17 -6 -34 -10 -36 -5 -3 -6 -10 -3 -15 4 -5 -9 -35 -28 -67 -19 -31 -63 -109
-98 -172 -65 -118 -139 -238 -139 -226 0 3 16 38 35 76 34 67 136 345 205 555
99 304 195 484 364 684 123 147 116 132 116 245 0 122 20 254 60 396 17 58 30
128 30 155 0 26 3 46 6 43 3 -3 26 -40 52 -82z m1482 -260 c0 -3 -4 -8 -10
-11 -5 -3 -10 -1 -10 4 0 6 5 11 10 11 6 0 10 -2 10 -4z m-2716 -186 c-40
-114 -48 -99 -10 19 17 54 32 90 34 80 2 -11 -9 -55 -24 -99z m1326 93 c0 -33
54 -182 63 -176 6 3 7 1 4 -4 -10 -16 13 -73 29 -73 8 0 14 -10 14 -24 0 -14
5 -28 11 -32 8 -4 9 0 4 15 -4 13 -2 21 5 21 8 0 11 -12 8 -34 -2 -19 -1 -34
3 -33 4 1 15 -7 24 -18 16 -19 16 -18 1 7 -10 17 -12 29 -6 33 6 3 10 1 10 -4
0 -6 13 -29 29 -51 18 -26 27 -48 24 -61 -4 -12 2 -29 16 -43 12 -12 19 -25
15 -28 -3 -3 0 -9 7 -14 8 -4 10 -3 5 4 -8 13 -6 14 36 16 15 1 24 -2 21 -6
-2 -5 -14 -6 -26 -2 -21 6 -21 6 2 -20 14 -14 21 -29 18 -33 -4 -3 -7 -2 -7 4
0 6 -8 14 -17 17 -10 3 -4 -5 12 -19 17 -13 37 -30 46 -38 8 -7 21 -11 29 -9
7 3 10 0 7 -5 -3 -5 8 -20 25 -34 16 -13 35 -29 42 -35 7 -6 22 -14 34 -18 12
-4 28 -13 34 -20 7 -6 44 -29 81 -50 38 -21 66 -40 64 -43 -10 -9 -163 72
-252 133 -99 68 -229 197 -288 287 -67 100 -115 225 -132 337 -3 25 -9 53 -12
64 -3 12 -1 16 6 12 6 -4 11 -15 11 -23z m2747 11 c-3 -3 -12 -4 -19 -1 -8 3
-5 6 6 6 11 1 17 -2 13 -5z m-1896 -82 c16 -17 47 -44 69 -58 22 -15 40 -31
40 -35 0 -36 -119 70 -163 145 l-19 31 22 -25 c12 -14 35 -40 51 -58z m715 8
c53 -27 101 -47 105 -44 5 3 9 0 9 -5 0 -6 6 -11 14 -11 7 0 27 -7 42 -15 16
-8 36 -15 45 -15 9 0 36 -7 59 -15 36 -13 182 -28 280 -29 14 0 118 6 232 14
231 15 334 7 463 -35 98 -32 185 -72 185 -84 0 -6 5 -11 11 -11 5 0 8 4 4 10
-9 14 103 -37 150 -70 48 -33 86 -103 104 -190 11 -52 11 -55 -11 -72 -36 -28
-44 -22 -62 42 -23 81 -88 208 -127 248 -34 35 -55 42 -44 15 4 -10 13 -38 20
-63 7 -25 29 -91 49 -147 32 -92 44 -143 32 -143 -3 0 -37 18 -78 39 -128 69
-153 73 -448 81 -254 6 -268 7 -332 32 -132 52 -250 111 -236 119 22 12 270
-8 319 -26 89 -34 176 -52 274 -58 l100 -6 -48 19 c-69 27 -219 59 -322 70
-87 9 -124 20 -69 20 16 0 65 7 109 15 106 19 252 19 327 -1 79 -20 177 -67
208 -99 25 -26 42 -41 133 -125 l48 -44 -6 29 c-19 86 -75 200 -115 233 -25
22 -115 62 -187 84 -61 19 -105 22 -433 29 -276 5 -381 11 -430 23 -204 49
-276 80 -400 171 -109 80 -104 83 26 15z m3547 -71 c21 -58 50 -139 67 -179
16 -40 30 -76 30 -81 0 -4 19 -60 41 -124 41 -114 42 -116 58 -93 26 37 151
161 157 155 16 -16 -16 -65 -80 -119 -39 -33 -74 -63 -78 -67 -9 -8 22 -132
32 -126 4 2 5 -17 3 -43 -6 -61 9 -102 35 -95 17 4 20 -5 30 -94 40 -351 40
-428 -2 -693 -17 -108 -59 -277 -72 -288 -4 -4 -4 4 0 18 65 244 82 590 41
850 -26 170 -73 379 -110 491 -40 122 -148 401 -195 501 -33 72 -37 94 -17
101 18 7 21 1 60 -114z m-4591 -18 c-10 -27 -9 -31 7 -31 9 0 22 5 29 12 7 7
12 8 12 4 0 -5 7 -3 15 4 9 7 15 8 15 2 0 -11 -53 -32 -81 -32 -11 0 -19 3
-19 7 0 14 24 72 28 68 2 -2 0 -18 -6 -34z m465 -26 c0 -8 -4 -12 -9 -9 -4 3
-8 9 -8 15 0 5 4 9 8 9 5 0 9 -7 9 -15z m4313 -66 c0 -5 -4 -9 -10 -9 -5 0
-10 7 -10 16 0 8 5 12 10 9 6 -3 10 -10 10 -16z m-4340 -217 c40 -24 81 -44
91 -45 10 -1 15 -5 13 -9 -3 -4 0 -8 7 -8 7 0 10 -3 6 -6 -3 -4 -46 13 -94 37
-94 46 -173 116 -233 205 -27 40 -18 32 52 -41 55 -58 111 -105 158 -133z
m-2379 145 c-10 -9 -11 -8 -5 6 3 10 9 15 12 12 3 -3 0 -11 -7 -18z m5056 -34
c-3 -10 -5 -2 -5 17 0 19 2 27 5 18 2 -10 2 -26 0 -35z m-5075 -25 c-6 -6 -7
0 -4 19 5 21 7 23 10 9 2 -10 0 -22 -6 -28z m279 6 c-5 -16 -10 -21 -10 -12
-1 18 10 51 15 45 2 -1 -1 -16 -5 -33z m7192 -67 c15 -10 16 -17 7 -47 -6 -19
-16 -43 -21 -53 -6 -10 -14 -51 -20 -90 -5 -40 -15 -108 -23 -152 -8 -44 -15
-98 -16 -120 0 -28 -3 -36 -9 -26 -8 12 -11 8 -16 -15 -9 -35 -47 -118 -57
-122 -5 -2 -8 -10 -8 -18 0 -8 -7 -14 -15 -14 -8 0 -15 9 -15 20 0 11 -4 20
-10 20 -5 0 -10 -7 -10 -16 0 -10 -6 -14 -14 -11 -7 3 -33 1 -56 -4 -33 -8
-45 -7 -52 3 -6 8 -7 5 -3 -11 5 -16 4 -21 -4 -17 -6 4 -11 13 -11 21 0 44
-26 12 -80 -97 -57 -118 -83 -157 -39 -60 45 98 67 149 93 217 16 39 32 78 37
87 5 10 6 25 2 34 -4 12 -3 15 5 10 19 -12 14 1 -11 26 -12 13 -23 32 -24 43
-1 11 -3 41 -5 67 -2 38 -7 48 -23 50 -17 3 -14 8 19 40 36 35 166 128 179
128 9 0 96 60 103 71 6 11 65 49 75 49 3 0 13 -6 22 -13z m-7196 -19 c-3 -8
-6 -5 -6 6 -1 11 2 17 5 13 3 -3 4 -12 1 -19z m2948 -18 c-3 -6 4 -10 17 -10
21 0 20 -2 -7 -14 -46 -22 -130 -47 -193 -58 -60 -10 -209 -20 -179 -12 9 3
17 12 17 20 0 9 11 14 29 14 17 0 33 5 37 11 3 6 18 8 33 5 20 -5 23 -4 11 4
-11 9 -2 10 38 7 29 -2 52 0 52 6 0 5 7 6 15 3 9 -3 32 1 53 9 20 7 46 16 57
18 11 3 21 5 23 6 2 0 0 -3 -3 -9z m2385 -36 c0 -14 -4 -23 -9 -20 -5 3 -14
-8 -21 -24 -7 -17 -16 -30 -21 -30 -4 0 4 23 18 50 14 28 27 50 29 50 2 0 4
-12 4 -26z m600 6 c0 -5 -4 -10 -10 -10 -5 0 -10 5 -10 10 0 6 5 10 10 10 6 0
10 -4 10 -10z m-5407 -77 c-8 -84 -33 -165 -78 -260 -25 -51 -48 -93 -53 -93
-4 0 -14 -15 -21 -32 -13 -31 -14 -32 -18 -9 -3 15 14 60 46 125 45 92 111
271 111 303 0 7 4 13 9 13 5 0 6 -21 4 -47z m1754 41 c-3 -3 -12 -4 -19 -1 -8
3 -5 6 6 6 11 1 17 -2 13 -5z m-3211 -36 c29 -20 31 -26 27 -62 -4 -33 -2 -38
7 -26 10 13 11 13 7 0 -2 -8 8 -40 24 -70 46 -92 99 -209 99 -217 0 -5 -43 75
-96 177 -52 102 -99 189 -105 195 -11 11 -12 25 -2 25 4 0 21 -10 39 -22z
m6357 -215 c36 -76 75 -172 88 -213 12 -41 35 -101 51 -132 15 -32 28 -63 28
-70 -1 -24 -39 36 -46 72 -6 31 -8 24 -20 -55 -8 -49 -23 -119 -35 -155 -26
-80 -77 -172 -93 -167 -20 7 -19 39 3 77 23 41 74 232 69 258 -2 9 -11 -12
-20 -48 -22 -86 -77 -230 -89 -230 -15 0 -11 11 43 146 64 161 69 204 34 312
-26 82 -89 216 -105 227 -24 14 -33 76 -21 147 l12 71 18 -51 c10 -28 48 -114
83 -189z m521 166 c2 -24 7 -51 11 -60 3 -10 2 -20 -4 -24 -7 -3 -12 3 -12 17
-2 28 -5 51 -8 58 -1 3 -4 22 -5 44 -4 53 12 21 18 -35z m-2964 31 c-62 -53
-247 -131 -305 -130 -20 1 29 30 51 30 13 0 25 4 28 8 3 5 20 9 37 10 17 0 37
6 42 11 6 6 19 11 28 11 10 0 25 8 35 18 17 16 103 71 114 71 3 0 -11 -13 -30
-29z m253 -1 c-18 -5 -35 -15 -39 -21 -5 -8 -1 -9 12 -5 18 7 18 7 1 -7 -11
-8 -25 -12 -33 -9 -8 3 -14 1 -14 -5 0 -6 -16 -20 -35 -32 -32 -20 -36 -20
-62 -5 -24 13 -24 15 -5 9 15 -4 30 0 43 12 10 9 22 15 25 11 3 -3 26 10 51
29 24 19 54 34 66 33 16 -1 14 -3 -10 -10z m-4103 -29 c0 -5 -4 -10 -10 -10
-5 0 -10 5 -10 10 0 6 5 10 10 10 6 0 10 -4 10 -10z m507 -52 c-3 -8 -6 -5 -6
6 -1 11 2 17 5 13 3 -3 4 -12 1 -19z m2367 -97 c-7 -7 -55 43 -71 74 -12 23
-5 18 30 -20 25 -27 43 -52 41 -54z m1076 70 c0 -4 -16 -14 -35 -23 -29 -13
-36 -13 -46 -2 -8 10 -8 14 0 14 6 0 11 -5 11 -11 0 -5 4 -8 9 -5 4 3 7 16 6
30 -3 23 -1 24 26 14 16 -5 29 -13 29 -17z m-3453 -13 c-3 -8 -6 -5 -6 6 -1
11 2 17 5 13 3 -3 4 -12 1 -19z m4217 -27 c14 -87 103 -137 117 -66 l6 30 7
-26 c6 -21 12 -26 29 -22 18 4 16 1 -8 -16 -54 -37 -123 -22 -149 33 -26 56
-36 106 -21 106 7 0 15 -17 19 -39z m256 24 c0 -12 -14 -15 -67 -14 l-68 1 65
13 c36 7 66 13 68 14 1 0 2 -6 2 -14z m2175 -29 c99 -99 115 -174 113 -511 -1
-179 -4 -222 -8 -150 -5 89 -6 93 -9 35 -3 -74 -17 -165 -21 -135 -12 94 -17
314 -8 309 4 -3 8 3 9 13 0 10 3 13 6 6 7 -19 19 -16 20 6 1 15 -7 21 -30 26
-79 16 -107 28 -107 46 0 17 6 18 61 12 47 -5 63 -3 70 8 15 24 10 69 -16 125
-14 30 -25 59 -25 63 0 5 -20 35 -44 68 -52 69 -81 123 -66 123 6 0 30 -20 55
-44z m-2799 10 c34 -10 74 -30 91 -46 17 -16 33 -26 36 -23 4 3 24 -33 45 -80
32 -69 49 -92 91 -125 69 -55 144 -81 281 -97 150 -19 150 -19 252 -79 61 -35
88 -57 89 -71 1 -17 2 -17 6 -2 8 31 23 18 17 -15 -36 -213 -71 -299 -90 -222
-5 20 -9 23 -16 12 -7 -9 -8 -6 -5 10 3 13 3 21 0 18 -3 -3 -16 16 -28 42 -12
26 -36 61 -53 79 -17 17 -28 34 -25 37 4 3 -5 6 -18 6 -19 0 -21 2 -9 10 13 8
12 10 -2 10 -10 0 -18 4 -18 8 0 16 -90 53 -142 58 -29 3 -62 10 -73 14 -69
31 -215 80 -240 81 -28 1 -29 1 -5 8 22 6 19 10 -47 54 -77 51 -125 97 -65 62
17 -11 32 -22 32 -26 0 -4 11 -6 25 -5 13 2 22 0 19 -5 -2 -4 5 -13 16 -19 21
-11 21 -11 5 14 -10 14 -21 26 -26 26 -4 0 -33 22 -64 49 -31 27 -76 59 -100
70 -84 39 -259 91 -313 92 l-54 2 51 28 c28 15 64 32 79 38 38 15 186 7 258
-13z m287 -70 c46 -91 85 -134 109 -120 7 5 8 3 3 -6 -6 -10 -3 -12 13 -8 12
4 22 2 22 -4 0 -5 9 -6 20 -3 11 4 20 2 20 -4 0 -6 5 -11 11 -11 5 0 7 5 3 12
-5 8 -2 9 10 5 9 -4 31 0 47 8 16 9 34 13 40 10 5 -4 8 -1 7 6 -4 15 34 18 44
4 4 -5 8 -25 8 -43 0 -29 -5 -35 -42 -52 -85 -38 -201 -19 -277 46 -47 40 -95
135 -105 207 -11 75 13 59 67 -47z m2264 17 c-2 -16 -4 -3 -4 27 0 30 2 43 4
28 2 -16 2 -40 0 -55z m-944 39 c-2 -10 -11 -19 -19 -19 -8 0 -14 9 -14 19 0
11 7 18 19 18 14 0 18 -5 14 -18z m-5476 -34 c-3 -8 -6 -5 -6 6 -1 11 2 17 5
13 3 -3 4 -12 1 -19z m4293 0 c0 -13 -23 -5 -28 10 -2 7 2 10 12 6 9 -3 16
-11 16 -16z m2010 -73 c-7 -13 -17 -22 -22 -19 -4 3 -8 1 -8 -4 0 -10 -19 -32
-73 -81 -30 -28 -39 -33 -50 -22 -10 10 1 24 53 72 36 33 73 62 82 65 10 3 18
10 18 16 0 6 3 8 7 5 3 -4 0 -18 -7 -32z m-2638 -36 c101 -57 131 -77 91 -62
-11 5 -14 3 -9 -6 5 -7 17 -11 27 -8 11 3 17 1 13 -4 -3 -5 0 -9 6 -9 17 0 70
-46 63 -54 -4 -3 2 -6 13 -6 23 -1 115 -49 94 -50 -23 0 -220 102 -214 111 3
5 -2 9 -11 9 -9 0 -27 11 -40 25 -14 13 -25 22 -25 20 0 -3 -19 10 -43 28 -23
17 -54 40 -67 49 -55 37 -1 15 102 -43z m-1137 1 c10 -11 16 -20 13 -20 -3 0
-13 9 -23 20 -10 11 -16 20 -13 20 3 0 13 -9 23 -20z m55 -21 c-12 -9 -11 -10
7 -6 12 3 21 0 20 -5 -1 -6 7 -12 18 -13 11 -1 54 -12 95 -24 86 -25 233 -29
386 -10 69 8 97 8 113 0 12 -7 27 -9 33 -5 6 4 8 3 4 -4 -20 -33 -260 -48
-423 -27 -169 22 -349 98 -248 104 6 0 3 -4 -5 -10z m928 -8 c20 -11 86 -58
145 -105 127 -99 228 -145 340 -154 37 -2 65 -7 62 -10 -10 -11 -88 -1 -163
19 -82 22 -140 48 -192 89 -19 14 -78 53 -130 86 -52 32 -96 62 -98 67 -2 4
-10 7 -18 7 -8 0 -14 5 -14 10 0 16 27 12 68 -9z m-159 -14 c0 -9 -2 -9 -5 -1
-3 7 -15 10 -27 8 -21 -4 -21 -4 -2 5 23 10 35 5 34 -12z m-2237 -35 c-18 -10
-30 -21 -27 -25 3 -4 2 -5 -1 -2 -11 8 -45 -16 -38 -27 4 -7 9 -6 15 3 5 8 9
9 9 3 0 -18 -12 -24 -30 -14 -13 7 -20 6 -24 -5 -3 -8 -10 -15 -16 -15 -6 0
-3 8 7 19 23 24 113 81 127 81 6 -1 -4 -9 -22 -18z m-1474 -17 c-3 -3 -9 2
-12 12 -6 14 -5 15 5 6 7 -7 10 -15 7 -18z m5357 7 c-3 -3 -11 0 -18 7 -9 10
-8 11 6 5 10 -3 15 -9 12 -12z m-5068 -14 c-3 -8 -6 -5 -6 6 -1 11 2 17 5 13
3 -3 4 -12 1 -19z m4693 -13 c0 -8 6 -16 13 -18 8 -4 7 -6 -3 -6 -25 -1 -53
26 -46 45 5 13 9 14 21 4 8 -7 15 -18 15 -25z m-1071 -38 c9 -12 9 -15 -5 -13
-18 1 -64 38 -64 50 0 9 54 -20 69 -37z m-740 -90 c28 -13 47 -28 43 -32 -4
-5 -2 -5 5 -1 6 3 26 -2 45 -13 52 -31 187 -79 294 -106 90 -23 179 -34 419
-52 117 -8 79 -19 -75 -22 -147 -2 -341 28 -475 74 -114 38 -344 170 -385 219
-8 10 6 4 32 -13 25 -17 69 -41 97 -54z m-1005 -70 c134 -131 212 -189 308
-227 127 -51 239 -69 446 -71 78 0 144 -5 147 -9 15 -25 -240 -32 -375 -11
-136 21 -273 75 -385 151 -100 69 -251 234 -271 297 -4 15 -3 14 7 -2 7 -11
62 -69 123 -128z m2209 106 c-7 -2 -19 -2 -25 0 -7 3 -2 5 12 5 14 0 19 -2 13
-5z m3217 -28 c0 -5 -5 -3 -10 5 -5 8 -10 20 -10 25 0 6 5 3 10 -5 5 -8 10
-19 10 -25z m-3590 -5 c0 -5 -2 -10 -4 -10 -3 0 -8 5 -11 10 -3 6 -1 10 4 10
6 0 11 -4 11 -10z m-1420 -50 c18 -12 2 -12 -25 0 -13 6 -15 9 -5 9 8 0 22 -4
30 -9z m1923 -17 c-13 -2 -33 -2 -45 0 -13 2 -3 4 22 4 25 0 35 -2 23 -4z
m267 -45 c102 -50 230 -186 230 -247 0 -17 -8 -8 -29 33 -17 31 -43 68 -58 82
-71 67 -181 114 -267 114 -66 0 -126 10 -126 21 0 5 13 9 29 9 16 0 38 3 48 7
14 6 11 9 -17 15 -19 3 1 4 45 2 62 -4 95 -12 145 -36z m-3030 -46 c0 -7 4
-10 10 -7 5 3 23 -14 40 -37 103 -145 257 -307 276 -290 4 4 5 2 1 -3 -3 -6
19 -24 49 -40 30 -16 54 -35 54 -42 0 -7 6 -10 13 -8 6 3 26 -6 42 -21 22 -18
24 -22 8 -14 -13 6 -23 7 -23 3 0 -4 -7 0 -14 10 -8 10 -17 18 -20 18 -7 -1
-31 13 -116 67 -116 75 -322 308 -344 392 -7 24 -6 24 8 6 9 -11 16 -26 16
-34z m6080 -21 c0 -12 -20 -25 -27 -18 -7 7 6 27 18 27 5 0 9 -4 9 -9z m-6479
-49 c-12 -23 -18 -48 -15 -57 4 -8 1 -21 -4 -28 -8 -9 -32 -149 -32 -185 0 -2
-3 -1 -8 1 -4 3 -8 -31 -10 -74 -1 -44 -7 -100 -12 -126 -6 -26 -13 -81 -16
-123 -3 -41 -10 -115 -15 -165 -10 -96 -5 -165 13 -176 6 -4 11 -42 11 -93 0
-47 4 -86 9 -86 4 0 5 -12 2 -26 -5 -21 -4 -25 6 -19 9 6 11 4 5 -4 -4 -7 -11
-9 -15 -4 -17 18 -61 175 -63 221 -1 28 -5 48 -8 46 -4 -2 -13 35 -19 84 -27
187 14 497 90 682 15 37 32 64 39 62 7 -1 10 2 7 7 -6 9 45 113 52 107 2 -2
-6 -22 -17 -44z m6349 12 c0 -12 7 -15 25 -12 14 3 25 2 24 -1 0 -3 -40 -38
-88 -77 -92 -75 -163 -169 -231 -303 -18 -36 -43 -81 -55 -100 -20 -30 -85
-181 -85 -196 0 -6 65 29 68 38 2 4 8 7 13 7 4 0 39 19 76 43 116 74 143 89
143 79 0 -11 -303 -191 -322 -192 -11 0 73 205 103 250 9 14 47 79 83 145 66
118 220 335 237 335 5 0 9 -7 9 -16z m-2910 -18 c109 -45 190 -127 190 -194
l0 -35 -29 40 c-65 90 -200 164 -329 180 l-57 7 65 12 c93 17 94 16 160 -10z
m493 -66 c58 -64 90 -129 81 -164 -3 -14 -11 -23 -17 -19 -6 3 -7 1 -3 -6 9
-14 -12 -43 -25 -35 -5 3 -9 0 -9 -7 0 -8 -4 -8 -12 -1 -7 6 -26 12 -43 14
l-30 3 -3 133 c-1 77 1 132 7 132 5 0 29 -23 54 -50z m981 -100 c11 -30 23
-60 28 -67 5 -7 5 -14 -2 -18 -12 -7 -46 66 -56 122 -9 52 7 32 30 -37z
m-5135 -10 c-19 -27 -38 -50 -42 -50 -4 0 1 12 11 28 11 15 27 40 36 55 10 16
20 26 23 23 4 -3 -9 -28 -28 -56z m3561 40 c72 -22 148 -78 175 -131 26 -49
16 -50 -26 -4 -70 76 -190 129 -324 144 l-70 8 89 2 c63 1 108 -5 156 -19z
m2707 -22 c-3 -8 -6 -5 -6 6 -1 11 2 17 5 13 3 -3 4 -12 1 -19z m-5950 -20
c-3 -7 -5 -2 -5 12 0 14 2 19 5 13 2 -7 2 -19 0 -25z m5643 -19 c0 -6 -4 -7
-10 -4 -5 3 -10 11 -10 16 0 6 5 7 10 4 6 -3 10 -11 10 -16z m7 -41 c-3 -8 -6
-5 -6 6 -1 11 2 17 5 13 3 -3 4 -12 1 -19z m20 -30 c-3 -7 -5 -2 -5 12 0 14 2
19 5 13 2 -7 2 -19 0 -25z m643 22 c0 -5 -5 -10 -11 -10 -5 0 -7 5 -4 10 3 6
8 10 11 10 2 0 4 -4 4 -10z m-3195 -10 c22 -5 41 -14 43 -20 2 -5 8 -8 13 -5
8 5 99 -42 99 -51 0 -5 -33 8 -47 19 -7 5 -13 7 -13 4 0 -3 -26 6 -57 20 -44
20 -82 28 -153 33 l-95 7 85 1 c47 1 103 -3 125 -8z m-3110 -210 c22 -160 48
-281 92 -419 4 -14 3 -14 -6 -1 -15 22 -68 183 -86 265 -21 98 -32 219 -26
290 5 50 6 53 8 20 2 -22 10 -92 18 -155z m1682 154 c-3 -3 -12 -4 -19 -1 -8
3 -5 6 6 6 11 1 17 -2 13 -5z m-62 -16 c14 -6 25 -18 25 -26 0 -11 8 -13 31
-8 27 5 30 4 19 -9 -7 -8 -19 -15 -27 -15 -8 0 -27 -7 -42 -15 -21 -10 -36
-11 -57 -5 l-29 10 33 -3 c21 -2 32 1 32 9 0 7 8 17 18 23 15 9 15 11 -8 20
-14 5 -20 10 -15 11 6 1 1 5 -10 10 -11 5 -15 9 -8 9 7 1 24 -4 38 -11z m4031
-6 c1 -7 0 -8 -3 -2 -9 18 -23 11 -24 -12 0 -13 -3 -17 -6 -10 -7 18 5 44 19
40 6 -2 13 -10 14 -16z m-4201 -50 c170 -88 243 -110 404 -122 68 -6 127 -13
130 -16 3 -4 -43 -4 -104 -1 -122 5 -222 29 -349 80 -84 34 -186 96 -136 82
14 -4 39 -14 55 -23z m-127 -60 c23 -35 -7 -18 -38 21 l-25 32 24 -16 c14 -8
31 -25 39 -37z m-399 8 c29 -12 109 -36 177 -55 67 -18 131 -38 141 -45 16 -9
15 -10 -7 -5 -82 20 -380 114 -380 121 0 8 15 4 69 -16z m-169 -102 c32 -46
49 -62 35 -35 -4 6 6 -3 22 -21 15 -18 31 -32 34 -32 3 0 25 -18 48 -40 23
-22 48 -40 56 -40 8 0 22 -11 31 -26 10 -14 23 -23 31 -20 9 4 11 1 7 -6 -5
-8 -1 -9 12 -4 10 4 15 4 11 0 -11 -11 110 -68 188 -89 110 -29 400 -33 525
-7 52 11 105 23 118 27 16 6 22 3 22 -9 0 -19 -16 -21 -24 -3 -3 6 -4 3 -3 -8
2 -17 -12 -25 -83 -49 -80 -28 -94 -30 -245 -30 -178 0 -257 15 -400 75 -180
75 -442 297 -470 399 -7 25 -6 24 22 -5 16 -16 44 -51 63 -77z m-512 -3 c-3
-4 -16 9 -28 27 l-23 33 28 -27 c16 -15 26 -30 23 -33z m1857 35 c13 -6 5 -7
-25 -3 -25 3 -47 7 -49 9 -9 8 55 2 74 -6z m-62 -17 c-7 -2 -19 -2 -25 0 -7 3
-2 5 12 5 14 0 19 -2 13 -5z m-3382 -33 c19 -17 55 -45 82 -62 48 -32 63 -47
27 -28 -41 22 -106 69 -129 94 -33 35 -21 33 20 -4z m1622 -19 c17 -34 17 -34
-3 -16 -11 10 -20 27 -20 38 0 24 2 22 23 -22z m3646 -28 c3 -2 -8 -16 -23
-31 -16 -15 -26 -22 -22 -15 3 6 -1 16 -10 21 -19 11 -20 22 -2 33 12 8 46 3
57 -8z m154 -55 c70 -29 127 -56 127 -61 0 -4 -5 -5 -11 -1 -6 3 -16 0 -21 -7
-8 -11 -9 -11 -5 3 4 12 -3 18 -31 24 -20 4 -44 8 -52 9 -22 2 -67 22 -75 34
-8 14 -42 14 -50 0 -4 -6 1 -16 11 -24 11 -7 16 -16 13 -20 -7 -7 -78 36 -79
47 0 9 32 48 40 48 3 0 62 -23 133 -52z m-3738 23 c3 -5 1 -12 -5 -16 -5 -3
-10 1 -10 9 0 18 6 21 15 7z m-1520 -41 c10 -11 16 -20 13 -20 -3 0 -13 9 -23
20 -10 11 -16 20 -13 20 3 0 13 -9 23 -20z m1132 -150 c22 -72 69 -166 135
-267 104 -160 225 -280 408 -405 214 -146 411 -248 785 -404 422 -177 688
-361 869 -601 55 -73 142 -231 132 -240 -3 -4 -6 -1 -6 6 0 7 -4 10 -9 6 -5
-3 -13 0 -17 6 -4 8 -3 9 4 5 14 -8 15 -5 6 19 -6 13 -9 14 -16 3 -8 -10 -9
-9 -5 4 3 9 -3 24 -13 33 -11 10 -22 26 -25 36 -4 11 -11 17 -16 14 -5 -3 -6
2 -2 11 4 12 3 15 -5 10 -7 -4 -12 -1 -12 8 0 21 -22 66 -32 66 -5 0 -1 -12 8
-27 l16 -28 -21 24 c-14 15 -19 31 -15 44 4 13 2 17 -5 13 -6 -4 -11 -2 -11 4
0 6 -5 8 -10 5 -6 -4 -9 -1 -8 7 2 7 -3 12 -10 10 -7 -1 -12 3 -10 10 4 16
-52 79 -63 72 -5 -3 -7 1 -4 8 2 7 -10 24 -28 38 -17 14 -28 20 -24 14 4 -7 1
-14 -7 -17 -9 -4 -12 0 -9 13 3 10 -1 21 -8 25 -8 6 -10 4 -4 -6 8 -12 6 -12
-8 0 -9 7 -14 17 -11 22 8 13 -10 11 -24 -3 -9 -9 -15 -9 -24 1 -11 10 -10 11
3 6 24 -9 34 14 15 33 -9 9 -16 11 -16 5 0 -6 6 -14 13 -16 9 -4 9 -6 -1 -6
-7 -1 -20 8 -29 19 -17 20 -39 28 -29 11 4 -5 -2 -7 -12 -4 -10 2 -18 13 -19
23 -1 14 3 17 15 13 18 -7 17 -5 -12 17 -13 10 -17 10 -12 3 4 -7 3 -13 -3
-13 -6 0 -15 8 -20 19 -6 10 -22 26 -37 36 -14 9 -23 12 -20 6 5 -7 1 -9 -8
-5 -9 3 -14 9 -11 13 5 8 -65 46 -78 43 -5 -2 -5 2 -2 8 4 7 1 10 -6 9 -8 -2
-32 8 -54 22 -42 27 -84 45 -98 41 -5 -1 -6 2 -3 7 4 5 -11 15 -31 22 -21 7
-70 27 -109 46 -40 18 -74 33 -78 33 -11 0 -293 129 -376 172 -130 68 -335
193 -430 263 -153 113 -328 314 -414 476 -43 81 -73 180 -80 261 l-6 63 15
-55 c9 -30 23 -80 32 -110z m4073 130 c0 -5 -7 -10 -15 -10 -8 0 -15 5 -15 10
0 6 7 10 15 10 8 0 15 -4 15 -10z m1746 -52 c-9 -24 -32 -101 -50 -173 -19
-71 -35 -123 -35 -115 -1 24 56 252 75 299 22 55 31 45 10 -11z m312 46 c23
-7 31 -24 10 -24 -36 1 -149 -71 -214 -135 -70 -69 -96 -112 -174 -290 -10
-22 -34 -76 -53 -120 -20 -44 -54 -125 -76 -181 -21 -55 -54 -125 -71 -155
-58 -99 -195 -297 -202 -292 -5 2 -8 -2 -8 -9 0 -17 -65 -99 -73 -92 -3 3 8
20 24 36 16 17 29 35 29 40 0 6 26 45 58 88 55 76 127 188 184 288 30 52 58
121 119 297 23 66 45 122 48 125 3 3 6 10 6 15 0 6 9 35 19 65 53 160 110 228
251 302 100 53 92 50 123 42z m-2068 -25 c0 -5 -5 -9 -12 -9 -6 0 -3 -6 7 -14
18 -13 17 -13 -8 -13 -21 0 -27 4 -27 22 0 12 3 24 6 28 8 8 34 -3 34 -14z
m53 14 c-7 -2 -19 -2 -25 0 -7 3 -2 5 12 5 14 0 19 -2 13 -5z m67 -3 c8 -5 11
-10 5 -10 -5 0 -17 5 -25 10 -8 5 -10 10 -5 10 6 0 17 -5 25 -10z m2213 4 c3
-3 -15 -25 -41 -48 -26 -23 -87 -82 -137 -132 -86 -86 -155 -143 -155 -129 0
4 17 24 38 44 76 72 155 161 148 168 -3 4 -13 -2 -21 -13 -8 -10 -15 -14 -15
-8 0 18 26 35 44 28 11 -4 16 -1 16 10 0 9 -6 16 -12 15 -29 -4 -48 2 -45 13
5 25 24 35 92 45 39 5 73 11 76 11 3 1 8 -1 12 -4z m-2109 -25 c-3 -5 1 -6 9
-3 8 3 27 -6 43 -19 16 -13 39 -29 52 -36 12 -6 22 -17 22 -23 0 -6 -9 -8 -22
-4 -13 4 -50 11 -83 17 -95 16 -132 28 -139 45 -5 13 -1 15 20 10 15 -4 40 -9
58 -12 26 -5 28 -4 13 6 -14 9 -15 15 -7 25 12 15 44 9 34 -6z m-2054 -26 c0
-5 -14 -16 -30 -25 -35 -20 -41 -8 -7 15 25 18 37 21 37 10z m1445 -47 c114
-13 104 -13 -185 -8 -413 6 -643 -17 -930 -94 -52 -14 -104 -26 -115 -27 -11
-1 -22 -5 -25 -8 -3 -3 -45 -21 -95 -39 -91 -33 -202 -86 -285 -136 l-45 -27
23 25 c12 14 46 37 75 51 154 77 369 165 418 171 19 2 88 18 154 34 144 37
278 61 400 72 113 11 452 3 610 -14z m-4856 -8 c45 -26 101 -78 101 -92 0 -6
-10 1 -21 17 -11 15 -26 27 -32 27 -7 0 -32 16 -56 35 -50 40 -46 46 8 13z
m1138 -40 c-3 -7 -5 -2 -5 12 0 14 2 19 5 13 2 -7 2 -19 0 -25z m4010 -31 c71
-36 39 -30 -40 7 -41 19 -78 40 -82 46 -6 10 12 2 122 -53z m108 -17 c-3 -5 5
-15 19 -22 58 -26 16 -32 -51 -7 -31 11 -29 23 2 17 13 -3 24 -2 23 1 -1 12 2
21 8 21 3 0 2 -4 -1 -10z m1435 0 c0 -5 9 -19 20 -30 21 -21 21 -23 -4 -14 -9
3 -16 12 -16 20 0 8 -7 14 -15 14 -8 0 -15 5 -15 10 0 6 7 10 15 10 8 0 15 -4
15 -10z m-4917 -187 c28 -35 54 -63 59 -63 5 0 7 -3 5 -7 -6 -9 156 -139 233
-188 59 -37 364 -190 520 -260 52 -23 131 -59 175 -79 l80 -37 -74 74 c-43 44
-71 80 -66 86 3 6 1 10 -5 9 -7 -2 -23 14 -36 35 -13 20 -21 37 -17 37 3 0 66
-59 139 -131 94 -94 163 -151 241 -203 173 -114 252 -177 388 -312 173 -171
291 -404 309 -609 5 -53 4 -56 -5 -24 -19 65 -63 68 -103 7 -14 -22 -15 -33
-6 -67 13 -50 19 -52 17 -7 -1 19 -6 31 -11 28 -5 -3 -6 2 -3 12 4 10 7 23 7
29 0 24 23 -13 25 -40 1 -15 6 -40 10 -55 6 -24 4 -28 -14 -28 -15 0 -19 -4
-14 -17 3 -10 4 -16 1 -13 -4 3 -16 34 -28 70 -12 36 -32 93 -46 128 -14 34
-22 68 -18 74 4 6 3 8 -3 5 -6 -4 -34 33 -62 82 -154 260 -379 451 -732 620
-54 26 -96 51 -92 55 4 4 0 4 -9 1 -9 -4 -40 6 -69 21 -30 15 -60 29 -67 30
-8 1 -17 6 -20 10 -4 4 2 4 13 0 11 -4 16 -4 12 0 -13 14 15 34 48 34 l32 0
-5 50 c-2 28 0 50 5 50 5 0 17 6 28 13 17 13 17 14 -5 12 -13 -1 -32 7 -42 17
-10 10 -25 18 -33 18 -8 0 -15 7 -15 16 0 9 -5 12 -12 8 -6 -4 -16 0 -22 8
-11 15 -114 68 -133 68 -5 0 -18 8 -29 18 -11 9 -58 36 -105 59 -155 78 -306
187 -412 298 -55 57 -141 181 -152 216 -3 13 10 -3 30 -36 21 -33 60 -88 88
-122z m3141 167 c-11 -4 -124 -15 -252 -24 -127 -10 -273 -23 -324 -31 -51 -7
-124 -16 -163 -20 -92 -9 -302 -61 -390 -96 -73 -30 -96 -36 -80 -20 15 14
177 67 290 95 199 49 427 78 770 96 72 3 139 7 150 8 19 1 19 1 -1 -8z m286
-80 c12 -8 9 -10 -12 -10 -15 0 -30 5 -33 10 -8 13 25 13 45 0z m265 -10 c4
-6 -5 -10 -19 -10 -14 0 -26 5 -26 10 0 6 9 10 19 10 11 0 23 -4 26 -10z
m-526 -4 c-2 -2 -51 -6 -109 -8 -58 -3 -89 -2 -70 2 36 7 187 13 179 6z m336
-16 c8 -13 -5 -13 -25 0 -13 8 -13 10 2 10 9 0 20 -4 23 -10z m231 -6 c-3 -9
-6 -23 -6 -31 0 -13 -9 -14 -57 -8 -72 9 -115 25 -60 23 24 -2 42 3 47 12 8
12 10 12 10 -4 0 -15 3 -16 14 -7 11 10 15 8 19 -6 3 -14 6 -12 11 10 5 15 13
27 18 27 6 0 7 -7 4 -16z m-793 -1 c-7 -2 -19 -2 -25 0 -7 3 -2 5 12 5 14 0
19 -2 13 -5z m607 -3 c12 -8 11 -10 -7 -10 -13 0 -23 5 -23 10 0 13 11 13 30
0z m1900 0 c-8 -5 -19 -10 -25 -10 -5 0 -3 5 5 10 8 5 20 10 25 10 6 0 3 -5
-5 -10z m-2340 -30 c0 -5 -10 -10 -22 -10 -31 0 -172 -40 -297 -84 -57 -20
-108 -35 -113 -34 -11 4 306 113 367 127 55 12 65 13 65 1z m-242 -5 c-3 -3
-50 -16 -105 -30 -120 -29 -229 -71 -343 -132 -81 -44 -104 -47 -30 -5 122 71
283 134 400 157 78 16 85 17 78 10z m1642 -47 c38 -74 77 -116 105 -114 20 1
24 5 19 21 -5 19 -4 19 7 1 9 -14 6 -30 -16 -82 -15 -35 -31 -64 -36 -64 -17
0 -122 172 -122 199 0 29 11 81 17 81 2 0 14 -19 26 -42z m-1293 26 c-3 -3
-12 -4 -19 -1 -8 3 -5 6 6 6 11 1 17 -2 13 -5z m-2579 -33 c15 -10 29 -19 32
-18 5 0 36 -13 145 -63 39 -18 75 -33 82 -33 7 0 10 -4 7 -9 -3 -4 3 -8 13 -8
13 0 15 -3 5 -8 -8 -6 1 -13 30 -22 60 -19 178 -81 179 -94 1 -6 1 -15 0 -19
-1 -5 4 -5 10 -2 6 4 24 -2 40 -14 16 -12 34 -19 39 -16 6 3 10 1 10 -4 0 -6
7 -11 16 -11 8 0 13 -3 10 -8 -2 -4 7 -12 20 -19 13 -6 22 -7 18 -2 -3 5 -1 9
5 9 5 0 12 -4 16 -9 6 -11 113 -46 133 -44 9 1 8 -6 -5 -20 -16 -18 -16 -20
-1 -14 12 4 15 2 11 -9 -3 -10 0 -12 10 -8 10 3 20 -2 27 -15 6 -12 20 -21 30
-21 11 0 19 -6 17 -12 -1 -8 6 -12 16 -10 10 2 16 -2 15 -9 -2 -7 16 -22 39
-33 37 -19 40 -22 25 -36 -14 -13 -15 -12 -9 4 5 14 3 17 -8 12 -8 -3 -49 16
-92 43 -152 94 -330 190 -478 257 -148 67 -311 158 -362 202 -14 12 -30 22
-35 22 -5 0 -6 5 -3 10 3 6 -1 10 -9 10 -8 0 -20 9 -26 20 -13 25 -6 25 28 1z
m1277 1 c-13 -11 -65 -33 -65 -27 0 2 12 11 28 19 30 17 52 21 37 8z m1266
-39 c18 -20 25 -31 14 -23 -11 8 -25 20 -31 27 -9 11 -28 7 -100 -21 -123 -48
-225 -91 -263 -111 -18 -9 -35 -14 -37 -12 -11 11 102 64 256 122 76 29 119
47 126 54 0 1 16 -16 35 -36z m256 31 c-3 -3 -12 -4 -19 -1 -8 3 -5 6 6 6 11
1 17 -2 13 -5z m-1597 -27 c0 -6 -97 -67 -106 -67 -5 0 14 16 41 34 46 32 65
42 65 33z m3104 -21 c-4 -11 -17 -16 -43 -14 l-36 1 33 4 c18 3 36 11 39 19 3
8 7 13 9 11 3 -2 2 -12 -2 -21z m-5657 -8 c-3 -8 -6 -5 -6 6 -1 11 2 17 5 13
3 -3 4 -12 1 -19z m4293 7 c0 -8 -7 -15 -15 -15 -9 0 -12 6 -9 15 4 8 10 15
15 15 5 0 9 -7 9 -15z m1260 5 c20 -6 21 -8 5 -8 -11 0 -29 3 -40 8 -25 11 1
11 35 0z m-1177 -7 c11 -10 -24 -43 -44 -43 -16 0 -17 3 -7 25 11 24 37 33 51
18z m67 -34 c-7 -11 -14 -18 -17 -15 -3 3 0 12 7 21 18 21 23 19 10 -6z m794
-79 l48 -70 -15 -38 c-8 -20 -34 -76 -57 -125 -38 -80 -60 -101 -60 -59 0 14
-2 14 -9 3 -5 -7 -13 -11 -18 -8 -5 3 -9 -3 -9 -14 0 -21 11 -25 22 -8 4 7 10
7 16 1 7 -7 -10 -43 -48 -107 -32 -54 -60 -92 -62 -85 -3 7 1 16 8 20 7 4 9
13 5 20 -6 9 -4 11 5 5 9 -6 10 -2 4 16 -7 22 -9 49 -5 88 1 10 8 8 26 -9 29
-27 43 -20 27 12 -12 23 -12 23 -7 -2 6 -24 5 -24 -9 -6 -18 22 -21 51 -5 41
6 -4 9 -1 8 6 -3 22 12 50 24 42 5 -3 7 -1 4 4 -6 10 7 44 65 172 22 48 31 94
17 85 -5 -3 -8 5 -6 18 1 12 -3 23 -10 23 -7 0 -13 3 -13 8 0 4 0 14 0 22 0 8
1 15 3 15 2 0 25 -32 51 -70z m-1430 45 c-10 -8 -23 -15 -27 -15 -15 0 -122
-72 -137 -91 -15 -19 -16 -19 -33 17 l-18 37 29 -6 c22 -5 50 4 108 33 83 41
111 50 78 25z m207 -12 c13 -16 12 -17 -3 -4 -10 7 -18 15 -18 17 0 8 8 3 21
-13z m-581 3 c0 -2 -7 -7 -16 -10 -8 -3 -12 -2 -9 4 6 10 25 14 25 6z m1957
-42 c-6 -20 -13 -32 -14 -27 -4 11 14 63 21 63 2 0 -1 -16 -7 -36z m-2347 22
c0 -2 -8 -10 -17 -17 -16 -13 -17 -12 -4 4 13 16 21 21 21 13z m330 -10 c0 -3
-15 -14 -32 -26 l-33 -22 30 26 c31 27 35 29 35 22z m507 -19 c-123 -80 -214
-137 -221 -137 -7 0 -7 3 0 9 13 12 228 141 234 140 3 0 -3 -6 -13 -12z m849
-154 c-14 -26 -31 -55 -38 -64 -23 -28 -128 -97 -159 -104 -23 -5 -29 -11 -24
-26 15 -55 13 -60 -7 -20 -18 37 -23 41 -29 25 -7 -18 -8 -18 -9 1 -1 19 -1
19 -15 2 -7 -11 -11 -26 -9 -35 3 -10 -2 -5 -11 11 -8 15 -24 27 -34 27 -14 0
-17 -6 -14 -27 l4 -28 -13 25 c-17 31 -48 39 -49 13 -1 -16 -2 -16 -6 -1 -3
11 -17 18 -40 20 -20 2 -38 9 -41 16 -3 9 16 12 70 13 81 1 106 4 158 21 19 6
36 10 38 9 1 -1 29 12 61 29 84 45 144 108 167 177 l19 56 3 -46 c2 -34 -4
-58 -22 -94z m-6215 82 c7 -13 3 -12 -10 5 -11 14 -21 30 -21 35 0 11 14 -7
31 -40z m4459 42 c0 -2 -12 -14 -26 -28 -25 -22 -26 -23 -15 -2 9 18 19 26 39
32 1 1 2 0 2 -2z m2412 -34 c-2 -12 -8 -20 -13 -17 -5 3 -9 0 -9 -7 0 -7 -2
-10 -5 -7 -4 3 -3 17 0 30 8 32 33 33 27 1z m806 -3 c11 -18 9 -20 -16 -26
-215 -47 -358 -100 -439 -162 -18 -13 -33 -20 -33 -14 0 14 68 61 140 97 42
21 299 118 330 124 3 1 11 -8 18 -19z m308 -22 c-14 -24 -31 -45 -38 -47 -8
-3 -6 5 5 20 9 13 22 34 27 47 5 12 14 22 20 22 6 0 0 -19 -14 -42z m-3166 -1
c0 -1 -26 -27 -57 -57 -32 -30 -44 -39 -28 -20 38 44 85 87 85 77z m570 -1 c0
-2 -8 -10 -17 -17 -16 -13 -17 -12 -4 4 13 16 21 21 21 13z m-4963 -12 c-3 -3
-12 -4 -19 -1 -8 3 -5 6 6 6 11 1 17 -2 13 -5z m4863 -79 c-24 -25 -46 -45
-49 -45 -3 0 15 20 39 45 24 25 46 45 49 45 3 0 -15 -20 -39 -45z m1144 1 c8
-19 33 -63 56 -96 53 -78 45 -89 -11 -15 -49 65 -93 94 -103 68 -6 -14 -8 -14
-21 3 -20 27 -18 44 5 44 10 0 25 7 32 15 19 22 26 18 42 -19z m-137 -98 c-3
-8 -6 -5 -6 6 -1 11 2 17 5 13 3 -3 4 -12 1 -19z m-2901 -83 c45 -59 52 -74
18 -40 -32 31 -85 99 -98 125 -11 21 43 -36 80 -85z m2329 -37 c27 -135 25
-334 -5 -448 -23 -86 -76 -212 -92 -218 -4 -2 -8 -13 -9 -25 -1 -12 -5 -2 -10
23 -7 31 -6 59 3 90 20 69 17 261 -6 350 -21 84 -83 227 -121 276 -14 18 -25
35 -25 37 0 3 55 6 123 6 l123 2 19 -93z m-2745 62 c0 -5 -5 -10 -11 -10 -5 0
-7 5 -4 10 3 6 8 10 11 10 2 0 4 -4 4 -10z m30 -20 c0 -5 -4 -10 -10 -10 -5 0
-10 5 -10 10 0 6 5 10 10 10 6 0 10 -4 10 -10z m2427 -84 c61 -68 118 -192
137 -296 21 -111 25 -295 8 -312 -9 -9 -12 2 -12 58 0 98 -79 366 -159 537
-39 84 -54 125 -29 82 6 -11 31 -42 55 -69z m-2457 34 c0 -22 -4 -40 -10 -40
-5 0 -10 18 -10 40 0 22 5 40 10 40 6 0 10 -18 10 -40z m875 0 c-3 -5 1 -10
10 -10 9 0 13 -5 10 -10 -5 -8 -11 -7 -21 1 -12 10 -11 29 2 29 3 0 2 -4 -1
-10z m-925 -54 c-11 -5 -25 -4 -36 3 -18 10 -18 10 2 11 12 0 25 8 29 18 7 16
8 15 15 -3 5 -14 3 -22 -10 -29z m967 27 c-4 -3 -1 -13 6 -22 11 -14 10 -14
-5 -2 -16 12 -16 31 -1 31 4 0 3 -3 0 -7z m-1077 -23 c0 -5 -2 -10 -4 -10 -3
0 -8 5 -11 10 -3 6 -1 10 4 10 6 0 11 -4 11 -10z m46 -15 c1 -8 -4 -11 -11 -8
-8 2 -11 11 -8 19 6 16 16 11 19 -11z m69 -5 c-3 -5 -12 -10 -18 -10 -7 0 -6
4 3 10 19 12 23 12 15 0z m1030 -28 c-3 -3 -16 5 -28 17 l-22 23 28 -17 c15
-10 25 -20 22 -23z m2555 -14 c0 -9 -4 -18 -9 -20 -4 -1 -20 -22 -35 -46 -26
-42 -26 -43 -11 -89 10 -28 13 -57 9 -73 -4 -14 -8 -41 -9 -60 -7 -96 -162
-340 -216 -340 -20 0 -69 54 -69 76 0 23 14 16 35 -19 11 -17 28 -33 36 -35
18 -3 106 110 144 187 44 87 65 235 37 263 -5 5 -24 -10 -48 -39 -127 -157
-247 -288 -252 -274 -2 6 -8 11 -13 11 -4 0 -6 -8 -2 -17 4 -11 2 -15 -3 -10
-5 5 -9 19 -9 32 -1 20 2 22 18 13 14 -7 17 -7 13 1 -4 6 -2 11 4 11 6 0 8 5
4 12 -4 7 -3 8 4 4 6 -4 9 -14 6 -24 -5 -14 -4 -14 6 1 8 13 9 22 2 29 -15 15
-3 48 16 41 12 -5 14 -2 9 11 -6 15 -3 17 13 13 11 -3 17 -1 14 4 -3 5 2 12
10 15 9 3 16 11 16 17 0 5 -8 3 -18 -6 -31 -28 -34 -19 -5 13 20 22 29 27 35
18 5 -8 7 -4 6 12 -2 17 2 25 12 25 10 0 14 -8 12 -24 -1 -14 1 -21 5 -17 4 4
7 19 8 34 0 15 3 28 8 30 13 4 44 37 41 43 -4 8 34 49 46 49 6 0 10 7 10 15 0
10 6 12 18 8 14 -6 15 -4 5 8 -9 11 -8 18 2 33 8 10 18 15 23 12 5 -3 21 8 36
25 19 21 25 36 21 52 -5 17 -4 19 4 7 6 -8 11 -22 11 -32z m-2473 -38 c9 0 13
-3 10 -6 -3 -4 12 -20 33 -35 22 -16 40 -32 40 -37 0 -15 57 -71 65 -64 5 4 5
2 2 -4 -4 -6 10 -32 30 -58 20 -25 34 -48 31 -51 -2 -2 -21 17 -41 44 -21 27
-77 90 -126 140 -49 49 -86 93 -83 96 3 3 10 -1 14 -10 5 -8 16 -15 25 -15z
m1128 -73 c9 3 15 -1 15 -8 0 -12 2 -12 9 -1 11 17 16 -3 32 -123 7 -53 9
-129 5 -185 -7 -112 -34 -271 -48 -285 -6 -6 -7 4 -1 30 22 109 1 353 -48 535
-11 41 -22 84 -25 95 -3 11 6 1 21 -22 17 -28 31 -40 40 -36z m239 30 c16 -59
-13 -283 -50 -392 -24 -71 -70 -165 -89 -183 -5 -4 -5 -1 0 7 5 9 4 12 -3 7
-6 -4 -9 -12 -6 -19 3 -8 -6 -25 -20 -40 -13 -14 -22 -28 -20 -30 2 -2 -6 -12
-17 -23 l-22 -19 22 42 c11 23 21 52 21 63 0 12 3 19 8 17 4 -3 7 9 8 26 1 18
9 70 19 117 11 53 18 135 19 216 0 73 4 130 7 128 4 -2 10 7 13 21 4 14 10 24
14 23 15 -3 42 15 42 28 0 8 5 14 10 14 6 0 10 7 10 15 0 22 27 7 34 -18z
m-846 -103 c16 -54 14 -68 -2 -24 -23 62 -29 86 -19 75 5 -5 15 -29 21 -51z
m939 -91 c-9 -80 -58 -241 -106 -345 -23 -49 -43 -88 -47 -88 -3 0 -4 3 -2 8
56 117 121 309 139 410 15 86 24 95 16 15z m-525 -117 c16 -55 34 -106 40
-113 6 -7 7 -24 4 -37 -3 -14 -2 -28 4 -31 6 -4 7 1 3 12 -3 10 -4 16 0 13 17
-15 34 -94 27 -123 -5 -18 -11 -50 -15 -71 -5 -29 -9 -36 -16 -25 -6 11 -9 8
-10 -11 0 -23 -1 -23 -9 -5 -5 11 -9 15 -9 9 -1 -5 -8 -19 -16 -30 -14 -17
-14 -17 -4 11 6 17 14 86 16 155 5 128 -10 223 -52 333 -18 44 -19 60 -3 33 6
-11 24 -65 40 -120z m-385 92 c-3 -8 -6 -5 -6 6 -1 11 2 17 5 13 3 -3 4 -12 1
-19z m1209 -2 c6 -6 43 -27 82 -46 46 -23 71 -41 71 -52 1 -10 -3 -18 -8 -18
-5 0 -48 25 -96 55 -49 30 -92 55 -97 55 -4 0 -8 7 -8 16 0 11 6 14 22 8 12
-3 27 -12 34 -18z m1140 -5 c-9 -14 66 -30 119 -26 52 4 50 3 -50 -21 -85 -21
-273 -93 -320 -123 -22 -14 -67 -47 -100 -75 -36 -30 -50 -38 -35 -21 53 63
109 104 205 153 33 17 87 51 120 76 62 47 70 52 61 37z m-3566 -27 c0 -8 -4
-14 -10 -14 -5 0 -10 7 -10 16 0 9 -5 12 -12 8 -7 -4 -8 -3 -4 4 9 15 36 4 36
-14z m3854 -25 c-10 -11 -26 -25 -35 -30 -13 -7 -16 -3 -16 16 0 14 3 22 8 19
5 -3 9 0 9 5 0 6 12 11 27 11 26 0 26 0 7 -21z m-6089 -25 c19 -16 19 -16 -5
-9 -31 9 -50 25 -29 25 7 0 23 -8 34 -16z m6367 -17 c8 -14 0 -29 -13 -22 -5
4 -13 -5 -18 -18 -5 -13 -16 -27 -24 -30 -8 -3 -17 -18 -20 -34 -4 -21 -22
-39 -68 -68 -82 -53 -87 -54 -45 -11 20 19 36 40 36 45 0 6 7 7 17 4 10 -4 14
-2 9 5 -7 12 28 35 38 24 4 -3 4 1 1 9 -4 10 5 27 24 45 16 15 28 31 25 36 -3
4 3 8 13 8 12 1 9 5 -12 16 l-30 14 30 -6 c16 -3 33 -11 37 -17z m-1378 -2
c-4 -8 -11 -15 -16 -15 -6 0 -5 6 2 15 7 8 14 15 16 15 2 0 1 -7 -2 -15z
m-4939 -13 c-3 -3 -11 0 -18 7 -9 10 -8 11 6 5 10 -3 15 -9 12 -12z m2415
-106 c0 -3 -4 -8 -10 -11 -5 -3 -10 -1 -10 4 0 6 5 11 10 11 6 0 10 -2 10 -4z
m2440 -20 c0 -3 -4 -8 -10 -11 -5 -3 -10 -1 -10 4 0 6 5 11 10 11 6 0 10 -2
10 -4z m-2365 -34 c-3 -3 -11 0 -18 7 -9 10 -8 11 6 5 10 -3 15 -9 12 -12z
m-287 -28 c13 -8 21 -18 18 -21 -3 -4 0 -13 7 -21 11 -13 9 -14 -10 -1 -15 9
-19 16 -10 21 14 8 -51 38 -69 31 -7 -2 -15 0 -18 5 -9 15 55 4 82 -14z m2589
7 c0 -11 -5 -18 -9 -15 -4 3 -5 11 -1 19 7 21 12 19 10 -4z m536 -8 c-7 -17
-43 -57 -43 -48 0 6 42 65 47 65 1 0 -1 -8 -4 -17z m-1706 -65 c-3 -7 -5 -2
-5 12 0 14 2 19 5 13 2 -7 2 -19 0 -25z m2027 -11 c-2 -7 -14 -19 -27 -26 -21
-13 -21 -12 2 13 27 29 33 32 25 13z m-3314 -29 c0 -5 -13 -2 -30 7 -16 9 -30
17 -30 19 0 3 14 -1 30 -7 17 -6 30 -15 30 -19z m40 -12 c0 -2 -7 -7 -16 -10
-8 -3 -12 -2 -9 4 6 10 25 14 25 6z m1771 -19 c-10 -9 -11 -8 -5 6 3 10 9 15
12 12 3 -3 0 -11 -7 -18z m-164 -9 c-3 -8 -6 -5 -6 6 -1 11 2 17 5 13 3 -3 4
-12 1 -19z m1603 18 c0 -2 -7 -7 -16 -10 -8 -3 -12 -2 -9 4 6 10 25 14 25 6z
m-920 -10 c0 -2 -7 -7 -16 -10 -8 -3 -12 -2 -9 4 6 10 25 14 25 6z m-1063 -38
c-3 -7 -5 -2 -5 12 0 14 2 19 5 13 2 -7 2 -19 0 -25z m1023 18 c0 -2 -8 -10
-17 -17 -16 -13 -17 -12 -4 4 13 16 21 21 21 13z m-572 -80 c-63 -62 -105 -96
-121 -96 -4 0 20 25 54 55 34 30 65 55 70 55 5 0 9 5 9 12 0 15 33 47 43 41 4
-3 -20 -33 -55 -67z m-1128 -66 c0 -11 -4 -20 -10 -20 -5 0 -10 9 -10 20 0 11
5 20 10 20 6 0 10 -9 10 -20z m863 -15 c-3 -9 -8 -14 -10 -11 -3 3 -2 9 2 15
9 16 15 13 8 -4z m753 -6 c19 -22 19 -22 -3 -10 -24 12 -39 31 -25 31 5 0 17
-10 28 -21z m-1771 -57 c-9 -9 -16 5 -21 40 l-4 33 15 -34 c8 -19 13 -36 10
-39z m1402 -92 c8 11 21 20 29 20 8 0 14 6 14 13 0 8 3 7 10 -3 10 -17 -11
-46 -41 -55 -17 -6 -18 -9 -5 -40 8 -18 22 -67 31 -109 18 -81 12 -107 -29
-114 -18 -3 -18 -2 -2 13 9 9 16 26 16 38 0 30 -30 129 -79 262 -22 61 -40
112 -40 115 0 3 19 -32 41 -78 38 -78 42 -81 55 -62z m203 126 c0 -3 -4 -8
-10 -11 -5 -3 -10 -1 -10 4 0 6 5 11 10 11 6 0 10 -2 10 -4z m260 -42 c0 -2
-13 2 -30 11 -16 9 -30 18 -30 21 0 2 14 -2 30 -11 17 -9 30 -18 30 -21z
m-1690 -14 c0 -22 -5 -40 -10 -40 -6 0 -10 17 -8 40 1 22 6 40 10 40 4 0 8
-18 8 -40z m23 -45 c-7 -23 -9 -18 -10 31 0 53 1 56 10 27 6 -19 6 -41 0 -58z
m1347 56 c0 -5 -12 -16 -27 -25 l-28 -17 23 20 c14 12 20 25 16 32 -4 8 -3 9
4 5 7 -4 12 -11 12 -15z m457 -72 c34 -15 65 -34 69 -40 4 -8 -4 -22 -22 -36
-31 -25 -50 -30 -38 -11 4 7 3 8 -5 4 -6 -4 -9 -11 -6 -16 7 -12 -26 -29 -44
-22 -8 2 -11 0 -8 -5 3 -5 -4 -10 -15 -10 -14 -1 -5 9 28 32 26 19 51 32 56
29 4 -3 11 2 14 10 3 9 10 13 15 10 5 -3 9 0 9 5 0 6 -32 27 -71 47 -39 19
-81 45 -93 56 -20 20 -19 20 14 -1 19 -12 63 -36 97 -52z m-4252 38 l30 -16
-30 -1 c-16 0 -79 -3 -139 -6 -81 -4 -115 -2 -134 8 -24 12 -23 13 44 25 88
15 191 11 229 -10z m4870 5 c29 -8 29 -9 7 -16 -20 -7 -21 -10 -10 -24 11 -14
10 -15 -12 -8 -14 4 -78 10 -142 13 -101 5 -130 3 -215 -18 -54 -13 -104 -23
-110 -22 -7 0 -13 -3 -13 -8 0 -5 -10 -9 -22 -9 -27 0 102 75 167 97 44 14
294 11 350 -5z m-1379 -34 c-9 -12 -16 -19 -16 -15 0 11 24 47 28 42 2 -2 -3
-14 -12 -27z m-3400 -23 c17 -13 16 -14 -13 -4 -34 11 -42 19 -20 19 7 0 22
-7 33 -15z m3348 -60 c-9 -14 -18 -25 -21 -25 -5 0 5 18 20 38 17 22 18 13 1
-13z m-34 -49 c0 -2 -8 -10 -17 -17 -16 -13 -17 -12 -4 4 13 16 21 21 21 13z
m-29 -138 c22 -12 39 -28 39 -35 0 -8 4 -12 9 -9 4 3 27 -17 51 -45 31 -37 40
-53 31 -62 -8 -8 -11 -8 -11 1 0 7 -31 44 -69 82 -51 52 -75 70 -95 70 -15 0
-25 -4 -22 -8 2 -4 -4 -8 -14 -8 -23 0 -15 14 14 26 11 5 23 9 25 9 2 1 21 -9
42 -21z m-2134 -14 c-3 -3 -12 -4 -19 -1 -8 3 -5 6 6 6 11 1 17 -2 13 -5z m49
-20 c18 -14 18 -14 -6 -3 -31 14 -36 19 -24 19 6 0 19 -7 30 -16z m58 -43 c-2
-3 -12 3 -22 13 -16 17 -16 18 5 5 12 -7 20 -15 17 -18z m1874 14 c-2 -6 -10
-8 -18 -6 -8 1 -12 0 -8 -5 9 -9 -10 -34 -25 -34 -6 0 -2 7 9 15 14 10 15 14
5 15 -11 0 -9 4 5 15 20 15 38 16 32 0z m-104 -82 c-9 -6 -22 -9 -30 -6 -9 3
-14 0 -12 -7 2 -7 -3 -15 -11 -18 -9 -3 -11 0 -7 9 4 8 0 5 -8 -5 -9 -11 -16
-23 -16 -26 0 -10 -53 -34 -69 -31 -7 1 -10 -2 -6 -9 3 -6 3 -10 -2 -9 -20 3
-34 -2 -28 -10 3 -6 -3 -15 -14 -21 -12 -6 -22 -6 -25 -1 -8 12 122 103 135
95 5 -3 8 -1 7 5 -4 15 49 46 78 46 21 0 22 -2 8 -12z m326 -77 c0 -2 -17 -15
-37 -27 -21 -13 -40 -26 -43 -29 -3 -4 -14 -10 -25 -14 -31 -11 -5 12 52 45
53 31 53 31 53 25z m847 -22 c25 -22 26 -24 6 -19 -12 3 -24 1 -28 -5 -12 -20
-25 -10 -25 20 0 37 10 38 47 4z m-155 -57 c-3 -18 13 -30 43 -33 12 -1 39
-14 60 -28 21 -14 42 -26 48 -26 6 0 8 -2 5 -5 -5 -6 -175 52 -193 65 -38 29
-103 20 -277 -39 -49 -16 -88 -27 -88 -24 0 8 125 61 198 83 40 12 87 20 104
18 19 -3 38 0 45 8 17 17 59 2 55 -19z m-3642 3 c-11 -8 1 -9 40 -5 l55 5 -65
-14 c-36 -8 -67 -12 -69 -10 -8 7 22 34 38 34 14 0 14 -2 1 -10z m2804 -15
c-4 -8 -10 -15 -16 -15 -5 0 -6 -4 -3 -10 4 -6 -1 -7 -11 -3 -13 5 -15 3 -9
-7 6 -9 4 -11 -5 -5 -9 5 -4 14 16 31 35 28 35 28 28 9z m-462 -9 c7 4 8 2 4
-4 -4 -6 -13 -9 -21 -6 -8 4 -12 11 -8 17 5 8 8 7 11 -1 2 -7 9 -9 14 -6z
m395 -50 c-23 -24 -55 -37 -62 -26 -4 6 -2 9 3 8 6 -2 10 1 10 6 1 11 44 34
55 29 4 -2 1 -10 -6 -17z m-507 -26 c0 -5 -2 -10 -4 -10 -3 0 -8 5 -11 10 -3
6 -1 10 4 10 6 0 11 -4 11 -10z m435 -19 c-3 -2 -16 -6 -28 -8 -15 -2 -18 0
-9 5 14 9 45 12 37 3z m-85 -39 c0 -9 -86 -72 -99 -72 -5 0 -12 -7 -15 -16 -3
-8 -10 -12 -16 -9 -5 3 -10 2 -10 -4 0 -6 -17 -19 -38 -30 -21 -11 -44 -27
-51 -35 -8 -9 -24 -16 -37 -16 -12 0 -26 -4 -29 -10 -3 -6 2 -8 12 -5 10 3 -4
-5 -30 -18 -26 -12 -45 -26 -40 -30 4 -5 0 -5 -9 -2 -9 4 -18 0 -21 -8 -3 -8
-18 -21 -34 -30 -69 -36 -86 -46 -93 -57 -5 -8 -10 -8 -14 -2 -9 15 343 240
367 234 4 -1 7 2 7 7 0 5 30 28 68 52 37 24 69 47 70 51 5 10 12 10 12 0z
m406 -169 c43 -33 77 -67 88 -90 13 -28 14 -34 3 -24 -12 9 -16 9 -19 -1 -4
-11 -198 181 -207 205 -4 12 33 -13 135 -90z m-2321 12 c-16 -14 -41 -28 -55
-31 -14 -4 -33 -14 -43 -22 -9 -8 -20 -13 -23 -9 -10 10 5 24 32 31 15 4 43
18 63 32 46 31 65 31 26 -1z m-669 -50 c-25 -19 -33 -19 -33 0 0 10 10 15 26
15 25 -1 25 -1 7 -15z m3598 0 c7 -19 -5 -19 -30 0 -19 14 -19 14 2 15 12 0
24 -7 28 -15z m-2476 -207 c134 -251 152 -288 140 -288 -7 0 -53 82 -103 183
-107 217 -97 197 -91 197 2 0 27 -42 54 -92z m1305 -88 c-47 -96 -85 -185 -85
-197 0 -12 -8 -23 -19 -26 -15 -4 -16 -1 -9 19 11 29 165 336 182 364 32 51
10 -1 -69 -160z m-870 135 c20 -10 37 -22 37 -27 0 -5 -19 4 -42 18 -68 42
-67 46 5 9z m492 16 c3 -6 -3 -14 -13 -20 -14 -7 -19 -6 -19 4 0 7 7 11 15 7
10 -3 13 -1 8 6 -4 7 -5 12 -2 12 3 0 7 -4 11 -9z m-80 -61 c-3 -5 -12 -10
-18 -10 -7 0 -6 4 3 10 19 12 23 12 15 0z m-274 -57 c10 -12 5 -11 -18 6 -18
12 -33 24 -33 27 0 9 37 -15 51 -33z m-1928 0 c-7 -2 -19 -2 -25 0 -7 3 -2 5
12 5 14 0 19 -2 13 -5z m2008 -37 c8 4 9 3 5 -4 -10 -17 -20 -15 -47 9 l-24
20 27 -16 c15 -9 33 -13 39 -9z m44 14 c-3 -5 -12 -10 -18 -10 -7 0 -6 4 3 10
19 12 23 12 15 0z"/>
<path d="M5806 9355 c4 -8 10 -12 15 -9 11 6 2 24 -11 24 -5 0 -7 -7 -4 -15z"/>
<path d="M4257 9403 c-4 -3 -7 -15 -7 -25 0 -17 2 -18 15 -4 8 8 15 19 15 25
0 12 -13 15 -23 4z"/>
<path d="M2830 8175 c7 -9 15 -13 17 -11 7 7 -7 26 -19 26 -6 0 -6 -6 2 -15z"/>
<path d="M7450 8160 c0 -5 4 -10 9 -10 5 0 12 -8 14 -17 3 -11 5 -7 6 10 1 18
-4 27 -14 27 -8 0 -15 -4 -15 -10z"/>
<path d="M7740 7975 c0 -8 5 -15 10 -15 6 0 10 7 10 15 0 8 -4 15 -10 15 -5 0
-10 -7 -10 -15z"/>
<path d="M7776 7791 c-4 -5 -2 -12 3 -15 5 -4 12 -2 15 3 4 5 2 12 -3 15 -5 4
-12 2 -15 -3z"/>
<path d="M7701 7785 c-1 -21 14 -34 29 -25 13 8 13 10 -2 10 -9 0 -19 6 -21
13 -3 6 -6 8 -6 2z"/>
<path d="M8111 7544 c0 -11 3 -14 6 -6 3 7 2 16 -1 19 -3 4 -6 -2 -5 -13z"/>
<path d="M7824 7332 c-9 -5 -8 -10 1 -19 11 -10 13 -9 12 7 -1 11 -1 20 -2 20
0 0 -5 -4 -11 -8z"/>
<path d="M7792 7282 c-7 -15 -8 -30 -3 -35 5 -5 12 4 16 23 9 40 3 46 -13 12z"/>
<path d="M8481 6961 c-8 -5 -9 -11 -3 -15 5 -3 12 1 16 9 6 17 6 18 -13 6z"/>
<path d="M8501 6784 c0 -11 3 -14 6 -6 3 7 2 16 -1 19 -3 4 -6 -2 -5 -13z"/>
<path d="M8522 6775 c-17 -37 -14 -45 4 -12 9 16 14 31 11 33 -2 2 -9 -7 -15
-21z"/>
<path d="M8542 6759 c-7 -12 -11 -24 -8 -27 3 -3 6 1 6 9 0 12 2 12 9 0 6 -9
9 -5 9 13 0 31 0 31 -16 5z"/>
<path d="M8521 6548 c-10 -30 -9 -31 4 -14 8 11 15 26 15 33 0 22 -8 14 -19
-19z"/>
<path d="M8671 6344 c0 -11 3 -14 6 -6 3 7 2 16 -1 19 -3 4 -6 -2 -5 -13z"/>
<path d="M3400 6185 c0 -8 2 -15 4 -15 2 0 6 7 10 15 3 8 1 15 -4 15 -6 0 -10
-7 -10 -15z"/>
<path d="M9072 5585 c0 -16 2 -22 5 -12 2 9 2 23 0 30 -3 6 -5 -1 -5 -18z"/>
<path d="M4846 6091 c-3 -4 6 -6 19 -3 14 2 25 6 25 8 0 8 -39 4 -44 -5z"/>
<path d="M5145 5950 c-3 -6 1 -7 9 -4 18 7 21 14 7 14 -6 0 -13 -4 -16 -10z"/>
<path d="M5303 5853 c9 -2 23 -2 30 0 6 3 -1 5 -18 5 -16 0 -22 -2 -12 -5z"/>
<path d="M5355 5844 c25 -10 205 -61 205 -58 0 8 -43 25 -113 44 -67 17 -121
26 -92 14z"/>
<path d="M5370 5659 c0 -5 5 -7 10 -4 6 3 10 8 10 11 0 2 -4 4 -10 4 -5 0 -10
-5 -10 -11z"/>
<path d="M4588 5613 c7 -3 16 -2 19 1 4 3 -2 6 -13 5 -11 0 -14 -3 -6 -6z"/>
<path d="M2511 4294 c0 -11 3 -14 6 -6 3 7 2 16 -1 19 -3 4 -6 -2 -5 -13z"/>
<path d="M4035 3430 c3 -5 10 -10 16 -10 5 0 9 5 9 10 0 6 -7 10 -16 10 -8 0
-12 -4 -9 -10z"/>
<path d="M4066 3412 c-2 -4 7 -13 21 -19 25 -12 25 -12 8 7 -20 22 -22 23 -29
12z"/>
<path d="M5041 2664 c0 -11 3 -14 6 -6 3 7 2 16 -1 19 -3 4 -6 -2 -5 -13z"/>
<path d="M5103 2513 c-15 -5 -18 -33 -4 -33 8 0 25 30 19 35 -2 1 -9 0 -15 -2z"/>
<path d="M7636 3538 c5 -42 14 -49 14 -10 0 17 -4 33 -9 36 -4 3 -7 -9 -5 -26z"/>
<path d="M6690 2908 c0 -9 5 -20 10 -23 13 -8 13 5 0 25 -8 13 -10 13 -10 -2z"/>
<path d="M7310 3069 c0 -5 5 -7 10 -4 6 3 10 8 10 11 0 2 -4 4 -10 4 -5 0 -10
-5 -10 -11z"/>
<path d="M7245 3020 c-3 -5 1 -10 10 -10 9 0 13 5 10 10 -3 6 -8 10 -10 10 -2
0 -7 -4 -10 -10z"/>
<path d="M6117 2753 c3 -7 6 -13 8 -13 2 0 5 6 8 13 3 8 -1 14 -8 14 -7 0 -11
-6 -8 -14z"/>
<path d="M4845 9689 c-4 -6 -5 -12 -2 -15 2 -3 7 2 10 11 7 17 1 20 -8 4z"/>
<path d="M4594 8912 c4 -3 14 -7 22 -8 9 -1 13 0 10 4 -4 3 -14 7 -22 8 -9 1
-13 0 -10 -4z"/>
<path d="M4486 8843 c-6 -14 -5 -15 5 -6 7 7 10 15 7 18 -3 3 -9 -2 -12 -12z"/>
<path d="M4586 8677 c3 -10 9 -15 12 -12 3 3 0 11 -7 18 -10 9 -11 8 -5 -6z"/>
<path d="M4396 8645 c-9 -26 -7 -32 5 -12 6 10 9 21 6 23 -2 3 -7 -2 -11 -11z"/>
<path d="M4570 8640 c0 -5 5 -10 10 -10 6 0 10 5 10 10 0 6 -4 10 -10 10 -5 0
-10 -4 -10 -10z"/>
<path d="M4325 8531 c-3 -5 -2 -12 3 -15 5 -3 9 1 9 9 0 17 -3 19 -12 6z"/>
<path d="M5333 7553 c15 -2 27 -8 27 -13 0 -4 19 -11 43 -15 66 -12 232 -72
330 -121 49 -25 91 -44 93 -42 2 2 -26 21 -62 41 -35 21 -62 42 -59 47 3 6 0
7 -8 4 -8 -3 -21 2 -30 10 -8 8 -17 12 -21 9 -3 -4 -6 -1 -6 5 0 6 -7 9 -17 5
-12 -5 -14 -3 -8 7 5 8 4 11 -1 7 -6 -3 -50 8 -100 24 -49 17 -101 29 -116 27
-15 -3 -25 -1 -22 4 3 4 -12 7 -33 7 -30 -2 -32 -3 -10 -6z"/>
<path d="M6270 7276 c0 -2 8 -10 18 -17 15 -13 16 -12 3 4 -13 16 -21 21 -21
13z"/>
<path d="M6415 7140 c10 -11 20 -20 23 -20 3 0 -3 9 -13 20 -10 11 -20 20 -23
20 -3 0 3 -9 13 -20z"/>
<path d="M7000 6949 c0 -2 -9 -50 -20 -107 -11 -56 -20 -122 -20 -145 -1 -23
-7 -59 -14 -79 -16 -44 -4 -42 38 8 23 29 71 124 61 124 -2 0 3 16 11 35 17
41 17 48 4 40 -5 -3 -10 -2 -10 4 0 5 5 13 10 16 7 4 2 21 -12 46 -19 35 -48
69 -48 58z"/>
<path d="M7820 6811 c0 -5 5 -13 10 -16 6 -3 10 -2 10 4 0 5 -4 13 -10 16 -5
3 -10 2 -10 -4z"/>
<path d="M7796 6772 c-2 -4 4 -8 14 -8 10 0 16 4 14 8 -3 4 -9 8 -14 8 -5 0
-11 -4 -14 -8z"/>
<path d="M7157 6442 c-37 -59 -88 -172 -65 -140 41 53 112 187 105 195 -2 2
-20 -23 -40 -55z"/>
<path d="M6315 6410 c3 -5 8 -10 11 -10 2 0 4 5 4 10 0 6 -5 10 -11 10 -5 0
-7 -4 -4 -10z"/>
<path d="M7153 5623 c-3 -10 -8 -21 -10 -25 -2 -4 1 -9 6 -12 5 -3 11 8 13 24
5 33 1 39 -9 13z"/>
<path d="M7022 5500 c0 -14 2 -19 5 -12 2 6 2 18 0 25 -3 6 -5 1 -5 -13z"/>
<path d="M7041 5173 c24 -31 39 -45 39 -36 -1 16 -25 48 -39 51 -12 3 -12 1 0
-15z"/>
<path d="M6934 5025 c82 -34 157 -87 222 -158 61 -68 67 -66 24 11 -37 64 -88
102 -191 142 -93 36 -140 40 -55 5z"/>
<path d="M6898 4674 c6 -11 18 -28 27 -39 15 -19 15 -18 1 12 -9 17 -21 35
-27 39 -8 4 -8 1 -1 -12z"/>
<path d="M9285 4578 c3 -39 22 -48 34 -16 9 25 -2 48 -24 48 -8 0 -12 -12 -10
-32z"/>
<path d="M7838 1743 c7 -3 16 -2 19 1 4 3 -2 6 -13 5 -11 0 -14 -3 -6 -6z"/>
<path d="M7740 1725 c-25 -7 -38 -13 -30 -14 8 0 38 6 65 13 28 8 41 14 30 14
-11 0 -40 -6 -65 -13z"/>
</g>
</svg>
